<svg xmlns="http://www.w3.org/2000/svg" xmlns:xlink="http://www.w3.org/1999/xlink" width="154" zoomAndPan="magnify" viewBox="0 0 115.5 115.499996" height="154" preserveAspectRatio="xMidYMid meet" version="1.0"><defs><clipPath id="2d86a1be4b"><path d="M 0.394531 40 L 79 40 L 79 114.207031 L 0.394531 114.207031 Z M 0.394531 40 " clip-rule="nonzero"/></clipPath><clipPath id="87d29e4432"><path d="M 36 0 L 114.601562 0 L 114.601562 65 L 36 65 Z M 36 0 " clip-rule="nonzero"/></clipPath></defs><g clip-path="url(#2d86a1be4b)"><path fill="#7bc1b7" d="M 73.605469 88.085938 C 71.957031 86.4375 70.4375 84.679688 69.050781 82.808594 L 69.050781 93.6875 C 69.066406 94.457031 69.003906 95.21875 68.867188 95.976562 C 68.730469 96.730469 68.519531 97.46875 68.238281 98.183594 C 67.953125 98.894531 67.601562 99.574219 67.183594 100.21875 C 66.765625 100.863281 66.289062 101.460938 65.75 102.007812 C 65.210938 102.558594 64.625 103.046875 63.988281 103.480469 C 63.351562 103.914062 62.679688 104.277344 61.972656 104.574219 C 61.265625 104.871094 60.535156 105.097656 59.78125 105.25 C 59.027344 105.402344 58.265625 105.476562 57.496094 105.476562 C 56.730469 105.476562 55.96875 105.402344 55.214844 105.25 C 54.460938 105.097656 53.730469 104.871094 53.023438 104.574219 C 52.3125 104.277344 51.640625 103.914062 51.003906 103.480469 C 50.371094 103.046875 49.785156 102.558594 49.246094 102.007812 C 48.707031 101.460938 48.230469 100.863281 47.808594 100.21875 C 47.390625 99.574219 47.039062 98.894531 46.757812 98.183594 C 46.472656 97.46875 46.265625 96.730469 46.128906 95.976562 C 45.992188 95.21875 45.929688 94.457031 45.945312 93.6875 L 45.945312 68.65625 L 20.921875 68.65625 C 20.316406 68.65625 19.710938 68.609375 19.113281 68.511719 C 18.511719 68.417969 17.921875 68.277344 17.347656 68.089844 C 16.769531 67.902344 16.210938 67.667969 15.667969 67.394531 C 15.128906 67.117188 14.613281 66.800781 14.121094 66.445312 C 13.632812 66.085938 13.171875 65.691406 12.742188 65.261719 C 12.3125 64.832031 11.921875 64.371094 11.566406 63.878906 C 11.210938 63.386719 10.894531 62.871094 10.621094 62.328125 C 10.347656 61.789062 10.117188 61.226562 9.929688 60.648438 C 9.742188 60.070312 9.605469 59.484375 9.511719 58.882812 C 9.417969 58.285156 9.371094 57.679688 9.375 57.074219 C 9.375 56.464844 9.425781 55.863281 9.523438 55.261719 C 9.621094 54.664062 9.761719 54.074219 9.953125 53.5 C 10.144531 52.921875 10.378906 52.363281 10.65625 51.824219 C 10.933594 51.285156 11.253906 50.769531 11.613281 50.28125 C 11.972656 49.792969 12.367188 49.332031 12.796875 48.90625 C 13.230469 48.480469 13.691406 48.089844 14.183594 47.734375 L 15.058594 47.105469 C 13.929688 46.164062 12.878906 45.140625 11.910156 44.039062 C 10.878906 42.867188 9.914062 41.644531 9.019531 40.371094 L 8.59375 40.6875 C 7.738281 41.332031 6.9375 42.039062 6.191406 42.804688 C 5.445312 43.574219 4.761719 44.394531 4.148438 45.269531 C 3.53125 46.144531 2.984375 47.0625 2.511719 48.023438 C 2.035156 48.980469 1.640625 49.972656 1.324219 50.996094 C 1.003906 52.015625 0.765625 53.058594 0.609375 54.117188 C 0.453125 55.175781 0.382812 56.238281 0.394531 57.308594 C 0.402344 58.378906 0.496094 59.445312 0.671875 60.5 C 0.851562 61.554688 1.109375 62.589844 1.449219 63.605469 C 1.785156 64.621094 2.203125 65.605469 2.695312 66.554688 C 3.1875 67.503906 3.75 68.410156 4.382812 69.273438 C 5.019531 70.136719 5.714844 70.945312 6.476562 71.695312 C 7.238281 72.449219 8.050781 73.140625 8.921875 73.765625 C 9.789062 74.390625 10.699219 74.945312 11.65625 75.429688 C 12.609375 75.914062 13.597656 76.320312 14.617188 76.648438 C 15.636719 76.976562 16.671875 77.222656 17.730469 77.390625 C 18.789062 77.558594 19.851562 77.640625 20.921875 77.640625 L 36.960938 77.640625 L 36.960938 93.671875 C 36.949219 94.347656 36.972656 95.027344 37.03125 95.703125 C 37.089844 96.378906 37.179688 97.054688 37.300781 97.722656 C 37.425781 98.390625 37.582031 99.046875 37.769531 99.699219 C 37.960938 100.351562 38.179688 100.996094 38.433594 101.625 C 38.6875 102.253906 38.96875 102.871094 39.285156 103.472656 C 39.597656 104.078125 39.941406 104.660156 40.3125 105.230469 C 40.683594 105.796875 41.082031 106.347656 41.511719 106.875 C 41.9375 107.402344 42.386719 107.910156 42.863281 108.394531 C 43.339844 108.878906 43.839844 109.335938 44.363281 109.773438 C 44.886719 110.207031 45.425781 110.613281 45.988281 110.992188 C 46.550781 111.375 47.132812 111.726562 47.730469 112.050781 C 48.328125 112.371094 48.9375 112.664062 49.566406 112.925781 C 50.191406 113.1875 50.832031 113.421875 51.480469 113.617188 C 52.128906 113.816406 52.785156 113.984375 53.453125 114.117188 C 54.117188 114.253906 54.789062 114.351562 55.464844 114.417969 C 56.140625 114.488281 56.816406 114.519531 57.496094 114.519531 C 58.175781 114.519531 58.855469 114.488281 59.53125 114.417969 C 60.207031 114.351562 60.875 114.253906 61.542969 114.117188 C 62.207031 113.984375 62.867188 113.816406 63.515625 113.617188 C 64.164062 113.421875 64.800781 113.1875 65.429688 112.925781 C 66.054688 112.664062 66.667969 112.371094 67.265625 112.050781 C 67.863281 111.726562 68.441406 111.375 69.003906 110.992188 C 69.566406 110.613281 70.109375 110.207031 70.632812 109.773438 C 71.15625 109.335938 71.652344 108.878906 72.128906 108.394531 C 72.605469 107.910156 73.058594 107.402344 73.484375 106.875 C 73.910156 106.347656 74.308594 105.796875 74.683594 105.230469 C 75.054688 104.660156 75.398438 104.078125 75.710938 103.472656 C 76.023438 102.871094 76.308594 102.253906 76.5625 101.625 C 76.8125 100.996094 77.035156 100.351562 77.222656 99.699219 C 77.414062 99.046875 77.570312 98.390625 77.691406 97.722656 C 77.816406 97.054688 77.90625 96.378906 77.964844 95.703125 C 78.019531 95.027344 78.042969 94.347656 78.035156 93.671875 L 78.035156 91.824219 C 76.453125 90.703125 74.976562 89.457031 73.605469 88.085938 Z M 73.605469 88.085938 " fill-opacity="1" fill-rule="nonzero"/></g><g clip-path="url(#87d29e4432)"><path fill="#38b6ff" d="M 38.902344 40.527344 C 38.21875 42.125 37.273438 43.542969 36.0625 44.785156 L 36.359375 45.464844 L 36.359375 45.535156 L 45.945312 45.535156 L 45.945312 20.527344 C 45.960938 19.78125 46.046875 19.039062 46.207031 18.308594 C 46.367188 17.578125 46.59375 16.867188 46.890625 16.179688 C 47.1875 15.492188 47.550781 14.839844 47.972656 14.222656 C 48.398438 13.605469 48.875 13.035156 49.410156 12.511719 C 49.945312 11.988281 50.527344 11.519531 51.152344 11.109375 C 51.777344 10.695312 52.4375 10.347656 53.128906 10.066406 C 53.824219 9.78125 54.539062 9.570312 55.273438 9.425781 C 56.007812 9.28125 56.75 9.207031 57.496094 9.207031 C 58.246094 9.207031 58.988281 9.28125 59.722656 9.425781 C 60.457031 9.570312 61.171875 9.78125 61.863281 10.066406 C 62.558594 10.347656 63.21875 10.695312 63.84375 11.109375 C 64.46875 11.519531 65.050781 11.988281 65.585938 12.511719 C 66.117188 13.035156 66.597656 13.605469 67.023438 14.222656 C 67.445312 14.839844 67.804688 15.492188 68.105469 16.179688 C 68.402344 16.867188 68.628906 17.578125 68.789062 18.308594 C 68.945312 19.039062 69.035156 19.78125 69.050781 20.527344 L 69.050781 45.554688 L 73.34375 45.554688 C 74.777344 44.859375 76.289062 44.511719 77.878906 44.511719 C 79.472656 44.511719 80.984375 44.859375 82.414062 45.554688 L 94.0625 45.554688 C 94.820312 45.554688 95.570312 45.628906 96.316406 45.777344 C 97.058594 45.925781 97.78125 46.144531 98.480469 46.4375 C 99.179688 46.726562 99.847656 47.082031 100.476562 47.503906 C 101.105469 47.925781 101.691406 48.402344 102.226562 48.941406 C 102.761719 49.476562 103.242188 50.058594 103.660156 50.6875 C 104.082031 51.320312 104.4375 51.984375 104.730469 52.683594 C 105.019531 53.382812 105.238281 54.105469 105.386719 54.851562 C 105.535156 55.59375 105.613281 56.34375 105.613281 57.101562 C 105.613281 57.804688 105.546875 58.503906 105.417969 59.191406 C 108.679688 59.839844 111.414062 61.117188 113.027344 63.980469 C 113.113281 64.132812 113.183594 64.289062 113.257812 64.453125 L 113.5625 63.546875 C 113.816406 62.777344 114.023438 61.996094 114.183594 61.203125 C 114.34375 60.410156 114.460938 59.609375 114.527344 58.804688 C 114.59375 57.996094 114.613281 57.191406 114.585938 56.378906 C 114.554688 55.570312 114.480469 54.765625 114.355469 53.96875 C 114.230469 53.167969 114.0625 52.378906 113.84375 51.597656 C 113.625 50.816406 113.363281 50.054688 113.058594 49.304688 C 112.75 48.558594 112.398438 47.828125 112.003906 47.121094 C 111.609375 46.414062 111.175781 45.734375 110.703125 45.078125 C 110.230469 44.421875 109.71875 43.796875 109.167969 43.199219 C 108.621094 42.605469 108.039062 42.042969 107.425781 41.515625 C 106.808594 40.992188 106.167969 40.5 105.492188 40.050781 C 104.820312 39.601562 104.125 39.191406 103.402344 38.824219 C 102.683594 38.457031 101.941406 38.132812 101.183594 37.851562 C 100.425781 37.570312 99.652344 37.335938 98.863281 37.144531 C 98.078125 36.957031 97.28125 36.816406 96.476562 36.71875 C 95.675781 36.625 94.867188 36.578125 94.058594 36.578125 L 78.035156 36.578125 L 78.035156 20.527344 C 78.023438 19.863281 77.980469 19.199219 77.90625 18.535156 C 77.832031 17.875 77.726562 17.21875 77.585938 16.566406 C 77.449219 15.914062 77.277344 15.273438 77.078125 14.636719 C 76.875 14 76.644531 13.378906 76.382812 12.765625 C 76.121094 12.152344 75.828125 11.554688 75.507812 10.96875 C 75.1875 10.386719 74.839844 9.820312 74.464844 9.269531 C 74.089844 8.71875 73.6875 8.1875 73.261719 7.675781 C 72.835938 7.164062 72.382812 6.675781 71.910156 6.207031 C 71.433594 5.742188 70.9375 5.296875 70.421875 4.878906 C 69.902344 4.457031 69.367188 4.066406 68.8125 3.699219 C 68.253906 3.332031 67.683594 2.992188 67.09375 2.683594 C 66.503906 2.371094 65.902344 2.089844 65.285156 1.835938 C 64.667969 1.582031 64.042969 1.359375 63.402344 1.167969 C 62.765625 0.976562 62.121094 0.816406 61.464844 0.6875 C 60.8125 0.5625 60.152344 0.464844 59.492188 0.398438 C 58.828125 0.335938 58.164062 0.300781 57.496094 0.300781 C 56.832031 0.300781 56.167969 0.335938 55.503906 0.398438 C 54.839844 0.464844 54.183594 0.5625 53.527344 0.6875 C 52.875 0.816406 52.230469 0.976562 51.589844 1.167969 C 50.953125 1.359375 50.328125 1.582031 49.710938 1.835938 C 49.09375 2.089844 48.492188 2.371094 47.902344 2.683594 C 47.3125 2.992188 46.738281 3.332031 46.183594 3.699219 C 45.628906 4.066406 45.089844 4.457031 44.574219 4.878906 C 44.054688 5.296875 43.558594 5.742188 43.085938 6.207031 C 42.609375 6.675781 42.160156 7.164062 41.734375 7.675781 C 41.304688 8.1875 40.90625 8.71875 40.527344 9.269531 C 40.152344 9.820312 39.804688 10.386719 39.484375 10.96875 C 39.164062 11.554688 38.875 12.152344 38.613281 12.765625 C 38.351562 13.378906 38.121094 14 37.917969 14.636719 C 37.71875 15.273438 37.546875 15.914062 37.410156 16.566406 C 37.269531 17.21875 37.164062 17.875 37.089844 18.535156 C 37.015625 19.199219 36.972656 19.863281 36.960938 20.527344 L 36.960938 20.90625 C 39.375 26.792969 40.753906 36.023438 38.902344 40.527344 Z M 38.902344 40.527344 " fill-opacity="1" fill-rule="nonzero"/></g><path fill="#7bc1b7" d="M 6.890625 29.992188 C 7.28125 32.949219 10.289062 38.234375 13.890625 42.292969 C 15.371094 43.957031 17.574219 46.101562 19.644531 46.863281 C 21.546875 47.515625 23.492188 47.695312 25.484375 47.402344 L 26.519531 49.769531 C 26.675781 50.125 26.90625 50.421875 27.210938 50.660156 C 27.519531 50.898438 27.863281 51.050781 28.246094 51.113281 L 28.355469 51.457031 L 29.441406 50.984375 C 29.550781 51.292969 29.664062 51.570312 29.785156 51.839844 C 30.507812 53.496094 31.46875 55 32.664062 56.351562 C 34.773438 58.679688 37.316406 60.355469 40.289062 61.378906 C 44.515625 62.898438 48.070312 62.390625 51.210938 61.941406 C 56.585938 61.171875 60.140625 60.664062 65.023438 70.96875 C 67.832031 76.910156 71.546875 82.320312 75.464844 86.214844 C 80.125 90.832031 85.074219 93.3125 89.777344 93.433594 C 96.761719 93.566406 102.902344 88.773438 108.011719 79.121094 C 111.488281 72.574219 112.355469 68.160156 110.726562 65.28125 C 108.710938 61.707031 103.75 61.425781 97.996094 61.101562 C 93.613281 60.855469 88.664062 60.574219 84.746094 58.734375 C 84.902344 58.457031 85.035156 58.171875 85.15625 57.878906 C 85.273438 57.582031 85.375 57.28125 85.457031 56.976562 C 85.539062 56.671875 85.601562 56.359375 85.648438 56.046875 C 85.691406 55.730469 85.714844 55.417969 85.722656 55.101562 C 85.726562 54.78125 85.714844 54.464844 85.683594 54.152344 C 85.648438 53.835938 85.597656 53.523438 85.527344 53.214844 C 85.457031 52.90625 85.367188 52.601562 85.261719 52.304688 C 85.152344 52.003906 85.027344 51.714844 84.886719 51.429688 C 84.742188 51.148438 84.582031 50.875 84.40625 50.609375 C 84.230469 50.347656 84.039062 50.09375 83.832031 49.855469 C 83.625 49.613281 83.40625 49.386719 83.171875 49.175781 C 82.9375 48.960938 82.691406 48.761719 82.433594 48.578125 C 82.175781 48.394531 81.90625 48.226562 81.625 48.078125 C 81.347656 47.925781 81.058594 47.792969 80.765625 47.675781 C 80.46875 47.558594 80.167969 47.460938 79.863281 47.382812 C 79.554688 47.304688 79.246094 47.242188 78.929688 47.203125 C 78.617188 47.160156 78.300781 47.140625 77.984375 47.136719 C 77.664062 47.132812 77.351562 47.148438 77.035156 47.183594 C 76.71875 47.21875 76.40625 47.273438 76.097656 47.347656 C 75.789062 47.421875 75.488281 47.511719 75.191406 47.621094 C 74.894531 47.734375 74.605469 47.859375 74.320312 48.007812 C 74.039062 48.152344 73.769531 48.3125 73.507812 48.492188 C 73.246094 48.671875 72.996094 48.863281 72.753906 49.074219 C 72.515625 49.28125 72.292969 49.503906 72.082031 49.742188 C 71.871094 49.976562 71.671875 50.226562 71.492188 50.488281 C 71.3125 50.746094 71.148438 51.015625 71 51.296875 C 70.851562 51.578125 70.71875 51.867188 70.605469 52.160156 C 70.492188 52.457031 70.398438 52.761719 70.320312 53.066406 C 70.246094 53.375 70.1875 53.6875 70.148438 54 C 70.109375 54.316406 70.089844 54.632812 70.089844 54.949219 C 70.089844 55.265625 70.109375 55.582031 70.148438 55.898438 C 70.1875 56.210938 70.246094 56.523438 70.320312 56.832031 C 70.398438 57.136719 70.492188 57.441406 70.605469 57.738281 C 70.71875 58.03125 70.847656 58.320312 70.996094 58.601562 C 71.144531 58.882812 71.308594 59.152344 71.488281 59.414062 C 71.671875 59.671875 71.867188 59.921875 72.078125 60.15625 C 72.289062 60.394531 72.515625 60.617188 72.753906 60.828125 C 72.992188 61.035156 73.242188 61.230469 73.503906 61.40625 C 73.765625 61.585938 74.035156 61.75 74.320312 61.894531 C 74.601562 62.039062 74.890625 62.167969 75.1875 62.277344 C 75.484375 62.390625 75.785156 62.480469 76.09375 62.554688 C 76.402344 62.628906 76.714844 62.683594 77.03125 62.71875 C 77.34375 62.753906 77.660156 62.769531 77.980469 62.765625 C 78.296875 62.765625 78.613281 62.742188 78.925781 62.699219 C 79.242188 62.660156 79.550781 62.597656 79.859375 62.519531 C 80.164062 62.441406 80.464844 62.34375 80.761719 62.226562 C 81.054688 62.113281 81.34375 61.980469 81.621094 61.828125 C 81.902344 61.675781 82.171875 61.511719 82.429688 61.328125 C 87.160156 63.835938 92.808594 64.164062 97.820312 64.441406 C 102.390625 64.695312 106.707031 64.941406 107.816406 66.917969 C 108.492188 68.113281 108.558594 70.921875 105.058594 77.535156 C 100.574219 85.988281 95.449219 90.222656 89.851562 90.078125 C 80.863281 89.878906 72.488281 78.894531 68.058594 69.550781 C 62.113281 57.007812 56.332031 57.835938 50.734375 58.636719 C 47.847656 59.046875 44.867188 59.476562 41.421875 58.238281 C 35.96875 56.277344 33.558594 52.582031 32.5 49.660156 L 32.730469 49.558594 C 33.011719 49.4375 33.253906 49.269531 33.464844 49.046875 C 33.675781 48.828125 33.835938 48.578125 33.945312 48.296875 C 34.058594 48.011719 34.109375 47.71875 34.105469 47.414062 C 34.097656 47.113281 34.035156 46.820312 33.914062 46.542969 L 32.875 44.175781 C 34.441406 42.914062 35.632812 41.363281 36.445312 39.523438 C 38.441406 34.722656 35.863281 22.492188 32.734375 18.707031 C 31.316406 17.019531 29.164062 16.042969 26.4375 15.867188 C 26.082031 15.210938 25.582031 14.691406 24.941406 14.308594 C 24.296875 13.925781 23.601562 13.734375 22.851562 13.734375 C 22.515625 13.734375 22.183594 13.777344 21.859375 13.859375 C 21.53125 13.945312 21.222656 14.066406 20.925781 14.226562 C 20.628906 14.386719 20.359375 14.582031 20.113281 14.808594 C 19.863281 15.035156 19.648438 15.289062 19.464844 15.570312 C 19.28125 15.855469 19.132812 16.152344 19.023438 16.472656 C 18.914062 16.789062 18.84375 17.117188 18.816406 17.449219 C 18.789062 17.785156 18.800781 18.121094 18.855469 18.453125 C 18.910156 18.785156 19.003906 19.105469 19.136719 19.414062 C 19.300781 19.78125 19.511719 20.121094 19.773438 20.425781 C 20.035156 20.730469 20.335938 20.992188 20.675781 21.210938 C 21.015625 21.425781 21.382812 21.589844 21.769531 21.699219 C 22.15625 21.804688 22.554688 21.855469 22.957031 21.847656 C 23.359375 21.835938 23.753906 21.769531 24.136719 21.640625 C 24.519531 21.515625 24.875 21.335938 25.203125 21.105469 C 25.53125 20.871094 25.820312 20.597656 26.070312 20.277344 C 26.316406 19.960938 26.511719 19.613281 26.65625 19.238281 C 28.179688 19.394531 29.324219 19.894531 30.074219 20.738281 L 30.148438 20.828125 C 31.253906 22.160156 32.476562 25.585938 33.1875 29.34375 C 33.894531 33.101562 33.964844 36.699219 33.34375 38.199219 C 32.203125 40.949219 29.082031 42.792969 28.113281 43.320312 C 27.058594 43.683594 23.601562 44.710938 20.804688 43.679688 C 19.28125 43.121094 16.710938 40.65625 14.410156 37.527344 C 12.113281 34.402344 10.445312 31.226562 10.21875 29.484375 C 10.0625 28.335938 10.472656 27.121094 11.425781 25.84375 C 11.738281 25.964844 12.058594 26.050781 12.390625 26.097656 C 12.722656 26.140625 13.054688 26.144531 13.386719 26.105469 C 13.71875 26.070312 14.042969 25.992188 14.355469 25.875 C 14.667969 25.757812 14.964844 25.605469 15.238281 25.414062 C 15.515625 25.226562 15.765625 25.003906 15.984375 24.753906 C 16.207031 24.5 16.394531 24.226562 16.546875 23.929688 C 16.699219 23.632812 16.816406 23.320312 16.890625 22.996094 C 16.96875 22.667969 17.003906 22.339844 16.996094 22.003906 C 16.992188 21.667969 16.945312 21.339844 16.859375 21.015625 C 16.773438 20.695312 16.648438 20.386719 16.484375 20.09375 C 16.324219 19.800781 16.128906 19.53125 15.898438 19.289062 C 15.667969 19.042969 15.414062 18.832031 15.132812 18.648438 C 14.851562 18.46875 14.550781 18.324219 14.234375 18.21875 C 13.917969 18.109375 13.59375 18.042969 13.257812 18.015625 C 12.925781 17.988281 12.59375 18.003906 12.261719 18.058594 C 11.933594 18.113281 11.613281 18.210938 11.308594 18.34375 C 10.835938 18.550781 10.414062 18.835938 10.050781 19.199219 C 9.683594 19.566406 9.398438 19.984375 9.195312 20.457031 C 8.988281 20.933594 8.875 21.429688 8.859375 21.945312 C 8.84375 22.460938 8.921875 22.960938 9.09375 23.449219 C 7.363281 25.5625 6.601562 27.820312 6.890625 29.992188 Z M 6.890625 29.992188 " fill-opacity="1" fill-rule="nonzero"/></svg>