<svg xmlns="http://www.w3.org/2000/svg" xmlns:xlink="http://www.w3.org/1999/xlink" width="310" zoomAndPan="magnify" viewBox="0 0 232.5 42.75" height="57" preserveAspectRatio="xMidYMid meet" version="1.0"><defs><g/><clipPath id="14964f1701"><path d="M 1.191406 15 L 31 15 L 31 42.453125 L 1.191406 42.453125 Z M 1.191406 15 " clip-rule="nonzero"/></clipPath><clipPath id="0ce61ca0c8"><path d="M 14 0.046875 L 43.597656 0.046875 L 43.597656 24 L 14 24 Z M 14 0.046875 " clip-rule="nonzero"/></clipPath></defs><g clip-path="url(#14964f1701)"><path fill="#7bc1b7" d="M 28.390625 32.78125 C 27.777344 32.167969 27.210938 31.511719 26.695312 30.816406 L 26.695312 34.863281 C 26.699219 35.152344 26.675781 35.433594 26.625 35.714844 C 26.574219 35.996094 26.496094 36.269531 26.390625 36.535156 C 26.285156 36.804688 26.15625 37.054688 26 37.296875 C 25.84375 37.535156 25.667969 37.757812 25.464844 37.960938 C 25.265625 38.164062 25.046875 38.347656 24.8125 38.507812 C 24.574219 38.667969 24.324219 38.804688 24.0625 38.917969 C 23.796875 39.027344 23.523438 39.109375 23.246094 39.167969 C 22.964844 39.222656 22.679688 39.25 22.394531 39.25 C 22.109375 39.25 21.828125 39.222656 21.546875 39.167969 C 21.265625 39.109375 20.992188 39.027344 20.730469 38.917969 C 20.464844 38.804688 20.214844 38.667969 19.980469 38.507812 C 19.742188 38.347656 19.523438 38.164062 19.324219 37.960938 C 19.125 37.757812 18.945312 37.535156 18.789062 37.296875 C 18.632812 37.054688 18.503906 36.804688 18.398438 36.535156 C 18.292969 36.269531 18.214844 35.996094 18.164062 35.714844 C 18.113281 35.433594 18.089844 35.152344 18.097656 34.863281 L 18.097656 25.550781 L 8.785156 25.550781 C 8.328125 25.550781 7.886719 25.480469 7.453125 25.339844 C 7.019531 25.199219 6.621094 24.992188 6.253906 24.726562 C 5.886719 24.457031 5.570312 24.140625 5.300781 23.773438 C 5.035156 23.402344 4.832031 23.003906 4.695312 22.570312 C 4.554688 22.136719 4.484375 21.695312 4.488281 21.238281 C 4.488281 20.785156 4.558594 20.339844 4.703125 19.910156 C 4.84375 19.476562 5.050781 19.078125 5.320312 18.710938 C 5.589844 18.34375 5.90625 18.027344 6.277344 17.761719 L 6.601562 17.53125 C 6.183594 17.179688 5.792969 16.800781 5.429688 16.386719 C 5.046875 15.953125 4.6875 15.5 4.355469 15.023438 L 4.195312 15.140625 C 3.554688 15.625 3.003906 16.191406 2.542969 16.847656 C 2.078125 17.5 1.730469 18.210938 1.492188 18.976562 C 1.253906 19.742188 1.136719 20.527344 1.144531 21.328125 C 1.152344 22.128906 1.285156 22.910156 1.539062 23.671875 C 1.789062 24.429688 2.15625 25.132812 2.628906 25.78125 C 3.105469 26.425781 3.667969 26.980469 4.316406 27.449219 C 4.96875 27.917969 5.675781 28.277344 6.4375 28.523438 C 7.199219 28.769531 7.984375 28.894531 8.785156 28.894531 L 14.753906 28.894531 L 14.753906 34.859375 C 14.746094 35.363281 14.789062 35.867188 14.878906 36.367188 C 14.972656 36.863281 15.113281 37.347656 15.300781 37.820312 C 15.488281 38.289062 15.722656 38.734375 16 39.160156 C 16.277344 39.582031 16.59375 39.976562 16.949219 40.335938 C 17.304688 40.699219 17.691406 41.019531 18.113281 41.304688 C 18.53125 41.589844 18.976562 41.828125 19.445312 42.023438 C 19.910156 42.21875 20.394531 42.367188 20.890625 42.46875 C 21.386719 42.566406 21.890625 42.617188 22.394531 42.617188 C 22.902344 42.617188 23.402344 42.566406 23.902344 42.46875 C 24.398438 42.367188 24.878906 42.21875 25.347656 42.023438 C 25.816406 41.828125 26.257812 41.589844 26.679688 41.304688 C 27.097656 41.019531 27.484375 40.699219 27.839844 40.335938 C 28.195312 39.976562 28.511719 39.582031 28.789062 39.160156 C 29.066406 38.734375 29.300781 38.289062 29.488281 37.820312 C 29.679688 37.347656 29.820312 36.863281 29.910156 36.367188 C 30.003906 35.867188 30.046875 35.363281 30.039062 34.859375 L 30.039062 34.171875 C 29.449219 33.753906 28.902344 33.289062 28.390625 32.78125 Z M 28.390625 32.78125 " fill-opacity="1" fill-rule="nonzero"/></g><g clip-path="url(#0ce61ca0c8)"><path fill="#38b6ff" d="M 15.476562 15.082031 C 15.222656 15.675781 14.867188 16.203125 14.417969 16.667969 L 14.53125 16.917969 L 14.53125 16.945312 L 18.097656 16.945312 L 18.097656 7.640625 C 18.101562 7.359375 18.136719 7.085938 18.195312 6.8125 C 18.253906 6.539062 18.339844 6.277344 18.449219 6.019531 C 18.558594 5.765625 18.691406 5.523438 18.851562 5.292969 C 19.007812 5.0625 19.1875 4.851562 19.386719 4.65625 C 19.585938 4.460938 19.800781 4.285156 20.035156 4.132812 C 20.265625 3.980469 20.511719 3.851562 20.769531 3.746094 C 21.027344 3.640625 21.292969 3.5625 21.566406 3.507812 C 21.839844 3.453125 22.117188 3.425781 22.394531 3.425781 C 22.675781 3.425781 22.949219 3.453125 23.222656 3.507812 C 23.496094 3.5625 23.761719 3.640625 24.019531 3.746094 C 24.277344 3.851562 24.523438 3.980469 24.757812 4.132812 C 24.988281 4.285156 25.207031 4.460938 25.40625 4.65625 C 25.605469 4.851562 25.78125 5.0625 25.941406 5.292969 C 26.097656 5.523438 26.230469 5.765625 26.34375 6.019531 C 26.453125 6.277344 26.539062 6.539062 26.597656 6.8125 C 26.65625 7.085938 26.6875 7.359375 26.695312 7.640625 L 26.695312 16.953125 L 28.292969 16.953125 C 28.824219 16.695312 29.386719 16.566406 29.980469 16.566406 C 30.574219 16.566406 31.136719 16.695312 31.667969 16.953125 L 36.003906 16.953125 C 36.285156 16.953125 36.5625 16.980469 36.839844 17.035156 C 37.117188 17.089844 37.386719 17.171875 37.648438 17.28125 C 37.90625 17.386719 38.15625 17.519531 38.390625 17.679688 C 38.625 17.835938 38.839844 18.011719 39.039062 18.210938 C 39.238281 18.410156 39.417969 18.628906 39.574219 18.863281 C 39.730469 19.097656 39.863281 19.34375 39.972656 19.605469 C 40.082031 19.867188 40.160156 20.136719 40.21875 20.410156 C 40.273438 20.6875 40.300781 20.96875 40.300781 21.25 C 40.300781 21.511719 40.277344 21.769531 40.230469 22.027344 C 41.441406 22.269531 42.460938 22.746094 43.058594 23.808594 C 43.089844 23.867188 43.117188 23.925781 43.144531 23.984375 L 43.257812 23.648438 C 43.351562 23.363281 43.429688 23.070312 43.492188 22.777344 C 43.550781 22.480469 43.59375 22.183594 43.617188 21.882812 C 43.644531 21.582031 43.648438 21.28125 43.640625 20.980469 C 43.628906 20.679688 43.601562 20.382812 43.554688 20.082031 C 43.507812 19.785156 43.445312 19.492188 43.363281 19.203125 C 43.285156 18.910156 43.1875 18.628906 43.070312 18.347656 C 42.957031 18.070312 42.828125 17.800781 42.679688 17.535156 C 42.53125 17.273438 42.371094 17.019531 42.195312 16.773438 C 42.019531 16.53125 41.828125 16.296875 41.625 16.078125 C 41.421875 15.855469 41.203125 15.644531 40.976562 15.449219 C 40.746094 15.253906 40.507812 15.070312 40.257812 14.90625 C 40.007812 14.738281 39.746094 14.585938 39.480469 14.449219 C 39.210938 14.3125 38.933594 14.191406 38.652344 14.085938 C 38.371094 13.980469 38.082031 13.894531 37.789062 13.824219 C 37.496094 13.753906 37.199219 13.699219 36.902344 13.664062 C 36.601562 13.628906 36.300781 13.613281 36 13.613281 L 30.039062 13.613281 L 30.039062 7.640625 C 30.03125 7.144531 29.976562 6.652344 29.871094 6.164062 C 29.769531 5.679688 29.617188 5.207031 29.421875 4.75 C 29.226562 4.292969 28.988281 3.859375 28.710938 3.449219 C 28.429688 3.039062 28.113281 2.660156 27.757812 2.308594 C 27.40625 1.960938 27.019531 1.648438 26.605469 1.375 C 26.191406 1.101562 25.753906 0.871094 25.292969 0.683594 C 24.832031 0.496094 24.359375 0.351562 23.871094 0.257812 C 23.382812 0.160156 22.890625 0.113281 22.394531 0.113281 C 21.898438 0.113281 21.40625 0.160156 20.917969 0.257812 C 20.429688 0.351562 19.957031 0.496094 19.496094 0.683594 C 19.039062 0.871094 18.601562 1.101562 18.183594 1.375 C 17.769531 1.648438 17.386719 1.960938 17.03125 2.308594 C 16.679688 2.660156 16.359375 3.039062 16.082031 3.449219 C 15.800781 3.859375 15.5625 4.292969 15.367188 4.75 C 15.171875 5.207031 15.023438 5.679688 14.917969 6.164062 C 14.816406 6.652344 14.761719 7.144531 14.753906 7.640625 L 14.753906 7.78125 C 15.652344 9.972656 16.164062 13.40625 15.476562 15.082031 Z M 15.476562 15.082031 " fill-opacity="1" fill-rule="nonzero"/></g><path fill="#7bc1b7" d="M 3.5625 11.160156 C 3.707031 12.261719 4.828125 14.226562 6.167969 15.738281 C 6.71875 16.359375 7.539062 17.15625 8.308594 17.441406 C 9.015625 17.683594 9.742188 17.75 10.480469 17.640625 L 10.867188 18.519531 C 10.992188 18.804688 11.203125 18.972656 11.511719 19.019531 L 11.550781 19.148438 L 11.957031 18.972656 C 11.996094 19.085938 12.039062 19.191406 12.082031 19.292969 C 12.351562 19.90625 12.707031 20.46875 13.15625 20.96875 C 13.9375 21.835938 14.886719 22.460938 15.992188 22.839844 C 17.566406 23.40625 18.886719 23.21875 20.054688 23.050781 C 22.054688 22.765625 23.378906 22.574219 25.195312 26.410156 C 26.242188 28.621094 27.625 30.632812 29.082031 32.082031 C 30.816406 33.800781 32.65625 34.722656 34.40625 34.769531 C 37.007812 34.820312 39.292969 33.035156 41.195312 29.445312 C 42.488281 27.007812 42.808594 25.363281 42.203125 24.292969 C 41.453125 22.964844 39.605469 22.859375 37.464844 22.738281 C 35.835938 22.644531 33.992188 22.542969 32.535156 21.855469 C 32.652344 21.648438 32.738281 21.433594 32.800781 21.203125 C 32.863281 20.972656 32.894531 20.742188 32.898438 20.503906 C 32.902344 20.269531 32.878906 20.035156 32.828125 19.804688 C 32.773438 19.570312 32.695312 19.351562 32.585938 19.140625 C 32.480469 18.929688 32.351562 18.730469 32.195312 18.554688 C 32.042969 18.375 31.867188 18.214844 31.675781 18.078125 C 31.480469 17.941406 31.273438 17.828125 31.054688 17.742188 C 30.832031 17.65625 30.605469 17.597656 30.371094 17.566406 C 30.136719 17.535156 29.902344 17.53125 29.664062 17.558594 C 29.429688 17.585938 29.203125 17.640625 28.980469 17.722656 C 28.757812 17.804688 28.546875 17.914062 28.351562 18.046875 C 28.15625 18.179688 27.980469 18.335938 27.824219 18.511719 C 27.664062 18.6875 27.53125 18.878906 27.417969 19.089844 C 27.308594 19.300781 27.226562 19.519531 27.167969 19.75 C 27.109375 19.976562 27.082031 20.210938 27.082031 20.449219 C 27.082031 20.683594 27.109375 20.917969 27.167969 21.148438 C 27.222656 21.378906 27.308594 21.597656 27.417969 21.808594 C 27.53125 22.015625 27.664062 22.210938 27.820312 22.386719 C 27.980469 22.5625 28.15625 22.71875 28.351562 22.851562 C 28.546875 22.984375 28.757812 23.09375 28.976562 23.175781 C 29.199219 23.257812 29.429688 23.3125 29.664062 23.339844 C 29.898438 23.367188 30.136719 23.363281 30.371094 23.332031 C 30.605469 23.300781 30.832031 23.242188 31.054688 23.15625 C 31.273438 23.070312 31.480469 22.960938 31.671875 22.820312 C 33.433594 23.753906 35.535156 23.878906 37.402344 23.980469 C 39.101562 24.074219 40.707031 24.167969 41.121094 24.902344 C 41.371094 25.347656 41.398438 26.394531 40.09375 28.855469 C 38.425781 32 36.519531 33.574219 34.4375 33.523438 C 31.089844 33.449219 27.972656 29.359375 26.328125 25.882812 C 24.113281 21.214844 21.960938 21.523438 19.878906 21.820312 C 18.804688 21.972656 17.695312 22.132812 16.414062 21.671875 C 14.382812 20.945312 13.488281 19.566406 13.09375 18.480469 L 13.179688 18.441406 C 13.394531 18.347656 13.546875 18.191406 13.632812 17.972656 C 13.71875 17.753906 13.714844 17.535156 13.621094 17.320312 L 13.230469 16.441406 C 13.816406 15.96875 14.257812 15.394531 14.5625 14.707031 C 15.304688 12.921875 14.34375 8.371094 13.179688 6.960938 C 12.652344 6.332031 11.851562 5.96875 10.835938 5.90625 C 10.703125 5.660156 10.519531 5.46875 10.28125 5.324219 C 10.039062 5.183594 9.78125 5.109375 9.503906 5.109375 C 9.378906 5.113281 9.253906 5.128906 9.132812 5.15625 C 9.011719 5.1875 8.894531 5.234375 8.785156 5.292969 C 8.675781 5.355469 8.574219 5.425781 8.484375 5.511719 C 8.390625 5.59375 8.308594 5.691406 8.242188 5.796875 C 8.171875 5.898438 8.117188 6.011719 8.078125 6.128906 C 8.039062 6.246094 8.011719 6.371094 8 6.496094 C 7.992188 6.617188 7.996094 6.742188 8.015625 6.867188 C 8.035156 6.988281 8.070312 7.109375 8.121094 7.222656 C 8.242188 7.503906 8.433594 7.726562 8.691406 7.894531 C 8.953125 8.058594 9.234375 8.136719 9.542969 8.128906 C 9.847656 8.121094 10.125 8.03125 10.378906 7.855469 C 10.628906 7.675781 10.808594 7.445312 10.917969 7.160156 C 11.484375 7.21875 11.910156 7.402344 12.191406 7.71875 L 12.21875 7.75 C 12.628906 8.246094 13.085938 9.523438 13.347656 10.917969 C 13.613281 12.316406 13.636719 13.65625 13.40625 14.214844 C 12.980469 15.238281 11.820312 15.925781 11.460938 16.121094 C 11.066406 16.257812 9.78125 16.636719 8.742188 16.253906 C 8.171875 16.046875 7.21875 15.128906 6.363281 13.964844 C 5.507812 12.800781 4.886719 11.621094 4.800781 10.972656 C 4.742188 10.542969 4.894531 10.09375 5.25 9.617188 C 5.367188 9.664062 5.484375 9.695312 5.609375 9.710938 C 5.734375 9.726562 5.855469 9.730469 5.980469 9.714844 C 6.105469 9.703125 6.222656 9.671875 6.339844 9.628906 C 6.457031 9.585938 6.566406 9.527344 6.667969 9.457031 C 6.773438 9.386719 6.863281 9.304688 6.945312 9.210938 C 7.03125 9.117188 7.097656 9.015625 7.15625 8.90625 C 7.214844 8.792969 7.257812 8.679688 7.285156 8.558594 C 7.3125 8.4375 7.324219 8.3125 7.324219 8.1875 C 7.320312 8.0625 7.304688 7.941406 7.273438 7.820312 C 7.242188 7.699219 7.195312 7.585938 7.132812 7.476562 C 7.074219 7.367188 7 7.269531 6.914062 7.179688 C 6.828125 7.085938 6.734375 7.007812 6.628906 6.941406 C 6.523438 6.875 6.414062 6.820312 6.296875 6.78125 C 6.179688 6.738281 6.058594 6.714844 5.933594 6.703125 C 5.808594 6.695312 5.683594 6.699219 5.5625 6.71875 C 5.4375 6.742188 5.320312 6.777344 5.207031 6.828125 C 5.03125 6.902344 4.875 7.007812 4.738281 7.144531 C 4.601562 7.28125 4.496094 7.4375 4.417969 7.613281 C 4.34375 7.789062 4.300781 7.972656 4.296875 8.167969 C 4.289062 8.359375 4.316406 8.542969 4.382812 8.726562 C 3.738281 9.511719 3.453125 10.351562 3.5625 11.160156 Z M 3.5625 11.160156 " fill-opacity="1" fill-rule="nonzero"/><g fill="#38b6ff" fill-opacity="1"><g transform="translate(43.646273, 33.882664)"><g><path d="M 18.75 0 L 13.96875 -6.90625 L 8.6875 -6.90625 L 8.6875 0 L 2.9375 0 L 2.9375 -24.8125 L 13.671875 -24.8125 C 15.867188 -24.8125 17.773438 -24.441406 19.390625 -23.703125 C 21.015625 -22.972656 22.265625 -21.929688 23.140625 -20.578125 C 24.015625 -19.234375 24.453125 -17.644531 24.453125 -15.8125 C 24.453125 -13.96875 24.007812 -12.375 23.125 -11.03125 C 22.238281 -9.695312 20.976562 -8.675781 19.34375 -7.96875 L 24.90625 0 Z M 18.640625 -15.8125 C 18.640625 -17.195312 18.191406 -18.257812 17.296875 -19 C 16.398438 -19.75 15.085938 -20.125 13.359375 -20.125 L 8.6875 -20.125 L 8.6875 -11.484375 L 13.359375 -11.484375 C 15.085938 -11.484375 16.398438 -11.859375 17.296875 -12.609375 C 18.191406 -13.367188 18.640625 -14.4375 18.640625 -15.8125 Z M 18.640625 -15.8125 "/></g></g></g><g fill="#38b6ff" fill-opacity="1"><g transform="translate(69.694331, 33.882664)"><g><path d="M 21.234375 -9.46875 C 21.234375 -9.394531 21.195312 -8.894531 21.125 -7.96875 L 6.703125 -7.96875 C 6.960938 -6.789062 7.578125 -5.859375 8.546875 -5.171875 C 9.515625 -4.484375 10.71875 -4.140625 12.15625 -4.140625 C 13.144531 -4.140625 14.023438 -4.285156 14.796875 -4.578125 C 15.566406 -4.878906 16.28125 -5.347656 16.9375 -5.984375 L 19.875 -2.796875 C 18.082031 -0.742188 15.460938 0.28125 12.015625 0.28125 C 9.859375 0.28125 7.953125 -0.132812 6.296875 -0.96875 C 4.648438 -1.8125 3.378906 -2.976562 2.484375 -4.46875 C 1.585938 -5.957031 1.140625 -7.644531 1.140625 -9.53125 C 1.140625 -11.394531 1.582031 -13.078125 2.46875 -14.578125 C 3.351562 -16.078125 4.566406 -17.242188 6.109375 -18.078125 C 7.660156 -18.921875 9.390625 -19.34375 11.296875 -19.34375 C 13.171875 -19.34375 14.863281 -18.941406 16.375 -18.140625 C 17.882812 -17.335938 19.070312 -16.1875 19.9375 -14.6875 C 20.800781 -13.1875 21.234375 -11.445312 21.234375 -9.46875 Z M 11.34375 -15.171875 C 10.09375 -15.171875 9.039062 -14.816406 8.1875 -14.109375 C 7.332031 -13.398438 6.8125 -12.429688 6.625 -11.203125 L 16.015625 -11.203125 C 15.828125 -12.398438 15.304688 -13.359375 14.453125 -14.078125 C 13.609375 -14.804688 12.570312 -15.171875 11.34375 -15.171875 Z M 11.34375 -15.171875 "/></g></g></g><g fill="#38b6ff" fill-opacity="1"><g transform="translate(92.056675, 33.882664)"><g><path d="M 22.21875 -19.0625 L 22.21875 -3.1875 C 22.21875 0.3125 21.304688 2.910156 19.484375 4.609375 C 17.671875 6.304688 15.015625 7.15625 11.515625 7.15625 C 9.671875 7.15625 7.921875 6.929688 6.265625 6.484375 C 4.617188 6.035156 3.25 5.382812 2.15625 4.53125 L 4.359375 0.5625 C 5.160156 1.226562 6.175781 1.753906 7.40625 2.140625 C 8.632812 2.535156 9.863281 2.734375 11.09375 2.734375 C 13.007812 2.734375 14.421875 2.300781 15.328125 1.4375 C 16.234375 0.570312 16.6875 -0.734375 16.6875 -2.484375 L 16.6875 -3.296875 C 15.25 -1.710938 13.242188 -0.921875 10.671875 -0.921875 C 8.921875 -0.921875 7.316406 -1.300781 5.859375 -2.0625 C 4.410156 -2.832031 3.257812 -3.914062 2.40625 -5.3125 C 1.5625 -6.707031 1.140625 -8.316406 1.140625 -10.140625 C 1.140625 -11.953125 1.5625 -13.554688 2.40625 -14.953125 C 3.257812 -16.347656 4.410156 -17.425781 5.859375 -18.1875 C 7.316406 -18.957031 8.921875 -19.34375 10.671875 -19.34375 C 13.429688 -19.34375 15.53125 -18.4375 16.96875 -16.625 L 16.96875 -19.0625 Z M 11.765625 -5.453125 C 13.234375 -5.453125 14.429688 -5.882812 15.359375 -6.75 C 16.296875 -7.613281 16.765625 -8.742188 16.765625 -10.140625 C 16.765625 -11.523438 16.296875 -12.648438 15.359375 -13.515625 C 14.429688 -14.378906 13.234375 -14.8125 11.765625 -14.8125 C 10.296875 -14.8125 9.085938 -14.378906 8.140625 -13.515625 C 7.203125 -12.648438 6.734375 -11.523438 6.734375 -10.140625 C 6.734375 -8.742188 7.203125 -7.613281 8.140625 -6.75 C 9.085938 -5.882812 10.296875 -5.453125 11.765625 -5.453125 Z M 11.765625 -5.453125 "/></g></g></g><g fill="#38b6ff" fill-opacity="1"><g transform="translate(116.864349, 33.882664)"><g><path d="M 2.546875 -19.0625 L 8.078125 -19.0625 L 8.078125 0 L 2.546875 0 Z M 5.328125 -21.71875 C 4.304688 -21.71875 3.476562 -22.015625 2.84375 -22.609375 C 2.207031 -23.203125 1.890625 -23.9375 1.890625 -24.8125 C 1.890625 -25.6875 2.207031 -26.414062 2.84375 -27 C 3.476562 -27.59375 4.304688 -27.890625 5.328125 -27.890625 C 6.335938 -27.890625 7.160156 -27.601562 7.796875 -27.03125 C 8.441406 -26.46875 8.765625 -25.757812 8.765625 -24.90625 C 8.765625 -23.988281 8.441406 -23.226562 7.796875 -22.625 C 7.160156 -22.019531 6.335938 -21.71875 5.328125 -21.71875 Z M 5.328125 -21.71875 "/></g></g></g><g fill="#38b6ff" fill-opacity="1"><g transform="translate(127.531655, 33.882664)"><g><path d="M 11.09375 0.421875 C 9.132812 0.421875 7.238281 0.15625 5.40625 -0.375 C 3.570312 -0.90625 2.101562 -1.59375 1 -2.4375 L 2.9375 -6.765625 C 4 -5.984375 5.265625 -5.359375 6.734375 -4.890625 C 8.203125 -4.421875 9.664062 -4.1875 11.125 -4.1875 C 12.757812 -4.1875 13.960938 -4.425781 14.734375 -4.90625 C 15.515625 -5.394531 15.90625 -6.039062 15.90625 -6.84375 C 15.90625 -7.425781 15.675781 -7.910156 15.21875 -8.296875 C 14.757812 -8.691406 14.171875 -9.007812 13.453125 -9.25 C 12.734375 -9.488281 11.757812 -9.75 10.53125 -10.03125 C 8.632812 -10.476562 7.082031 -10.925781 5.875 -11.375 C 4.675781 -11.820312 3.644531 -12.539062 2.78125 -13.53125 C 1.914062 -14.53125 1.484375 -15.851562 1.484375 -17.5 C 1.484375 -18.945312 1.875 -20.253906 2.65625 -21.421875 C 3.4375 -22.585938 4.613281 -23.515625 6.1875 -24.203125 C 7.757812 -24.890625 9.675781 -25.234375 11.9375 -25.234375 C 13.519531 -25.234375 15.066406 -25.039062 16.578125 -24.65625 C 18.097656 -24.28125 19.421875 -23.738281 20.546875 -23.03125 L 18.78125 -18.671875 C 16.488281 -19.972656 14.195312 -20.625 11.90625 -20.625 C 10.300781 -20.625 9.113281 -20.363281 8.34375 -19.84375 C 7.570312 -19.320312 7.1875 -18.640625 7.1875 -17.796875 C 7.1875 -16.941406 7.628906 -16.304688 8.515625 -15.890625 C 9.410156 -15.484375 10.765625 -15.078125 12.578125 -14.671875 C 14.472656 -14.222656 16.019531 -13.773438 17.21875 -13.328125 C 18.425781 -12.878906 19.457031 -12.171875 20.3125 -11.203125 C 21.175781 -10.234375 21.609375 -8.921875 21.609375 -7.265625 C 21.609375 -5.847656 21.210938 -4.550781 20.421875 -3.375 C 19.640625 -2.207031 18.457031 -1.28125 16.875 -0.59375 C 15.289062 0.0820312 13.363281 0.421875 11.09375 0.421875 Z M 11.09375 0.421875 "/></g></g></g><g fill="#38b6ff" fill-opacity="1"><g transform="translate(150.142087, 33.882664)"><g><path d="M 10.234375 -19.34375 C 13.191406 -19.34375 15.460938 -18.640625 17.046875 -17.234375 C 18.628906 -15.828125 19.421875 -13.707031 19.421875 -10.875 L 19.421875 0 L 14.25 0 L 14.25 -2.375 C 13.207031 -0.601562 11.269531 0.28125 8.4375 0.28125 C 6.96875 0.28125 5.695312 0.0351562 4.625 -0.453125 C 3.550781 -0.953125 2.726562 -1.640625 2.15625 -2.515625 C 1.59375 -3.390625 1.3125 -4.382812 1.3125 -5.5 C 1.3125 -7.269531 1.976562 -8.660156 3.3125 -9.671875 C 4.644531 -10.691406 6.707031 -11.203125 9.5 -11.203125 L 13.890625 -11.203125 C 13.890625 -12.398438 13.519531 -13.320312 12.78125 -13.96875 C 12.050781 -14.625 10.957031 -14.953125 9.5 -14.953125 C 8.476562 -14.953125 7.476562 -14.789062 6.5 -14.46875 C 5.519531 -14.15625 4.6875 -13.726562 4 -13.1875 L 2.015625 -17.046875 C 3.054688 -17.773438 4.300781 -18.335938 5.75 -18.734375 C 7.207031 -19.140625 8.703125 -19.34375 10.234375 -19.34375 Z M 9.8125 -3.4375 C 10.757812 -3.4375 11.597656 -3.65625 12.328125 -4.09375 C 13.066406 -4.53125 13.585938 -5.175781 13.890625 -6.03125 L 13.890625 -7.96875 L 10.09375 -7.96875 C 7.832031 -7.96875 6.703125 -7.222656 6.703125 -5.734375 C 6.703125 -5.023438 6.976562 -4.460938 7.53125 -4.046875 C 8.082031 -3.640625 8.84375 -3.4375 9.8125 -3.4375 Z M 9.8125 -3.4375 "/></g></g></g><g fill="#38b6ff" fill-opacity="1"><g transform="translate(172.008283, 33.882664)"><g><path d="M 2.546875 -26.296875 L 8.078125 -26.296875 L 8.078125 0 L 2.546875 0 Z M 2.546875 -26.296875 "/></g></g></g><g fill="#38b6ff" fill-opacity="1"><g transform="translate(182.675588, 33.882664)"><g><path d="M 21.765625 -19.0625 L 21.765625 0 L 16.515625 0 L 16.515625 -2.265625 C 15.785156 -1.441406 14.910156 -0.8125 13.890625 -0.375 C 12.878906 0.0625 11.78125 0.28125 10.59375 0.28125 C 8.09375 0.28125 6.109375 -0.4375 4.640625 -1.875 C 3.171875 -3.320312 2.4375 -5.460938 2.4375 -8.296875 L 2.4375 -19.0625 L 7.96875 -19.0625 L 7.96875 -9.109375 C 7.96875 -6.035156 9.257812 -4.5 11.84375 -4.5 C 13.164062 -4.5 14.226562 -4.929688 15.03125 -5.796875 C 15.832031 -6.660156 16.234375 -7.941406 16.234375 -9.640625 L 16.234375 -19.0625 Z M 21.765625 -19.0625 "/></g></g></g><g fill="#38b6ff" fill-opacity="1"><g transform="translate(207.022553, 33.882664)"><g><path d="M 21.96875 -26.296875 L 21.96875 0 L 16.6875 0 L 16.6875 -2.203125 C 15.320312 -0.546875 13.335938 0.28125 10.734375 0.28125 C 8.941406 0.28125 7.316406 -0.117188 5.859375 -0.921875 C 4.410156 -1.722656 3.269531 -2.867188 2.4375 -4.359375 C 1.613281 -5.847656 1.203125 -7.570312 1.203125 -9.53125 C 1.203125 -11.488281 1.613281 -13.210938 2.4375 -14.703125 C 3.269531 -16.191406 4.410156 -17.335938 5.859375 -18.140625 C 7.316406 -18.941406 8.941406 -19.34375 10.734375 -19.34375 C 13.171875 -19.34375 15.070312 -18.578125 16.4375 -17.046875 L 16.4375 -26.296875 Z M 11.6875 -4.25 C 13.082031 -4.25 14.238281 -4.726562 15.15625 -5.6875 C 16.082031 -6.644531 16.546875 -7.925781 16.546875 -9.53125 C 16.546875 -11.132812 16.082031 -12.414062 15.15625 -13.375 C 14.238281 -14.332031 13.082031 -14.8125 11.6875 -14.8125 C 10.269531 -14.8125 9.097656 -14.332031 8.171875 -13.375 C 7.253906 -12.414062 6.796875 -11.132812 6.796875 -9.53125 C 6.796875 -7.925781 7.253906 -6.644531 8.171875 -5.6875 C 9.097656 -4.726562 10.269531 -4.25 11.6875 -4.25 Z M 11.6875 -4.25 "/></g></g></g></svg>