<svg xmlns="http://www.w3.org/2000/svg" xmlns:xlink="http://www.w3.org/1999/xlink" width="313" zoomAndPan="magnify" viewBox="0 0 234.75 202.499994" height="270" preserveAspectRatio="xMidYMid meet" version="1.0"><defs><g/><clipPath id="350553dce9"><path d="M 59.789062 40 L 138 40 L 138 114.914062 L 59.789062 114.914062 Z M 59.789062 40 " clip-rule="nonzero"/></clipPath><clipPath id="10c6fc769a"><path d="M 95 0 L 174.703125 0 L 174.703125 65 L 95 65 Z M 95 0 " clip-rule="nonzero"/></clipPath></defs><g clip-path="url(#350553dce9)"><path fill="#7bc1b7" d="M 133.453125 88.632812 C 131.796875 86.972656 130.265625 85.203125 128.867188 83.320312 L 128.867188 94.269531 C 128.882812 95.042969 128.824219 95.808594 128.6875 96.570312 C 128.546875 97.332031 128.335938 98.070312 128.050781 98.789062 C 127.765625 99.507812 127.414062 100.191406 126.992188 100.839844 C 126.570312 101.488281 126.089844 102.089844 125.546875 102.640625 C 125.007812 103.191406 124.417969 103.6875 123.777344 104.121094 C 123.136719 104.554688 122.460938 104.921875 121.75 105.222656 C 121.035156 105.519531 120.300781 105.746094 119.542969 105.898438 C 118.785156 106.050781 118.019531 106.128906 117.246094 106.128906 C 116.472656 106.128906 115.707031 106.050781 114.949219 105.898438 C 114.191406 105.746094 113.457031 105.519531 112.742188 105.222656 C 112.03125 104.921875 111.351562 104.554688 110.714844 104.121094 C 110.074219 103.6875 109.484375 103.191406 108.941406 102.640625 C 108.402344 102.089844 107.921875 101.488281 107.5 100.839844 C 107.078125 100.191406 106.722656 99.507812 106.4375 98.789062 C 106.152344 98.070312 105.941406 97.332031 105.804688 96.570312 C 105.667969 95.808594 105.605469 95.042969 105.621094 94.269531 L 105.621094 69.082031 L 80.445312 69.082031 C 79.832031 69.082031 79.226562 69.03125 78.621094 68.9375 C 78.019531 68.84375 77.425781 68.699219 76.847656 68.511719 C 76.265625 68.320312 75.703125 68.089844 75.160156 67.808594 C 74.613281 67.53125 74.09375 67.214844 73.601562 66.855469 C 73.109375 66.496094 72.644531 66.097656 72.214844 65.664062 C 71.78125 65.234375 71.386719 64.769531 71.03125 64.273438 C 70.671875 63.78125 70.355469 63.261719 70.078125 62.714844 C 69.800781 62.171875 69.570312 61.605469 69.382812 61.023438 C 69.195312 60.445312 69.054688 59.851562 68.960938 59.246094 C 68.867188 58.644531 68.820312 58.035156 68.824219 57.425781 C 68.828125 56.816406 68.875 56.207031 68.972656 55.605469 C 69.070312 55 69.214844 54.410156 69.40625 53.828125 C 69.597656 53.25 69.835938 52.6875 70.113281 52.144531 C 70.394531 51.601562 70.714844 51.085938 71.074219 50.589844 C 71.4375 50.097656 71.835938 49.636719 72.269531 49.207031 C 72.703125 48.777344 73.167969 48.386719 73.664062 48.027344 L 74.546875 47.394531 C 73.410156 46.449219 72.351562 45.421875 71.375 44.3125 C 70.339844 43.132812 69.371094 41.902344 68.464844 40.621094 L 68.039062 40.941406 C 67.175781 41.585938 66.371094 42.296875 65.621094 43.070312 C 64.871094 43.84375 64.183594 44.667969 63.566406 45.550781 C 62.945312 46.429688 62.394531 47.351562 61.917969 48.320312 C 61.441406 49.285156 61.042969 50.28125 60.722656 51.308594 C 60.402344 52.339844 60.164062 53.386719 60.007812 54.449219 C 59.851562 55.515625 59.777344 56.585938 59.789062 57.664062 C 59.796875 58.742188 59.890625 59.8125 60.070312 60.875 C 60.25 61.9375 60.507812 62.976562 60.847656 64 C 61.191406 65.019531 61.609375 66.011719 62.101562 66.964844 C 62.597656 67.921875 63.164062 68.835938 63.804688 69.703125 C 64.441406 70.570312 65.144531 71.382812 65.910156 72.140625 C 66.675781 72.898438 67.492188 73.59375 68.367188 74.222656 C 69.242188 74.851562 70.160156 75.410156 71.121094 75.894531 C 72.082031 76.382812 73.074219 76.789062 74.097656 77.121094 C 75.125 77.453125 76.167969 77.703125 77.234375 77.867188 C 78.296875 78.035156 79.367188 78.121094 80.445312 78.121094 L 96.582031 78.121094 L 96.582031 94.25 C 96.570312 94.933594 96.59375 95.613281 96.652344 96.296875 C 96.710938 96.976562 96.800781 97.652344 96.925781 98.324219 C 97.050781 98.996094 97.207031 99.660156 97.398438 100.316406 C 97.585938 100.972656 97.808594 101.621094 98.0625 102.253906 C 98.320312 102.886719 98.605469 103.507812 98.917969 104.113281 C 99.234375 104.71875 99.582031 105.308594 99.953125 105.882812 C 100.328125 106.453125 100.730469 107.003906 101.160156 107.535156 C 101.589844 108.070312 102.042969 108.578125 102.523438 109.066406 C 103 109.550781 103.503906 110.011719 104.03125 110.449219 C 104.554688 110.886719 105.101562 111.296875 105.667969 111.679688 C 106.234375 112.0625 106.816406 112.417969 107.417969 112.742188 C 108.019531 113.066406 108.632812 113.363281 109.265625 113.625 C 109.894531 113.890625 110.535156 114.121094 111.191406 114.320312 C 111.84375 114.523438 112.503906 114.691406 113.175781 114.824219 C 113.84375 114.957031 114.519531 115.058594 115.199219 115.128906 C 115.878906 115.195312 116.5625 115.230469 117.246094 115.230469 C 117.929688 115.230469 118.609375 115.195312 119.289062 115.128906 C 119.96875 115.058594 120.644531 114.957031 121.316406 114.824219 C 121.984375 114.691406 122.648438 114.523438 123.300781 114.320312 C 123.953125 114.121094 124.597656 113.890625 125.226562 113.625 C 125.855469 113.363281 126.472656 113.066406 127.074219 112.742188 C 127.675781 112.417969 128.257812 112.0625 128.824219 111.679688 C 129.390625 111.296875 129.9375 110.886719 130.460938 110.449219 C 130.988281 110.011719 131.488281 109.550781 131.96875 109.066406 C 132.449219 108.578125 132.902344 108.070312 133.332031 107.535156 C 133.761719 107.003906 134.164062 106.453125 134.535156 105.882812 C 134.910156 105.308594 135.253906 104.71875 135.570312 104.113281 C 135.886719 103.507812 136.171875 102.886719 136.425781 102.253906 C 136.679688 101.621094 136.902344 100.972656 137.09375 100.316406 C 137.285156 99.660156 137.441406 98.996094 137.566406 98.324219 C 137.691406 97.652344 137.78125 96.976562 137.839844 96.296875 C 137.894531 95.613281 137.917969 94.933594 137.910156 94.25 L 137.910156 92.394531 C 136.320312 91.261719 134.835938 90.007812 133.453125 88.632812 Z M 133.453125 88.632812 " fill-opacity="1" fill-rule="nonzero"/></g><g clip-path="url(#10c6fc769a)"><path fill="#38b6ff" d="M 98.535156 40.777344 C 97.847656 42.382812 96.894531 43.8125 95.679688 45.0625 L 95.976562 45.746094 L 95.976562 45.816406 L 105.621094 45.816406 L 105.621094 20.65625 C 105.636719 19.902344 105.726562 19.15625 105.886719 18.421875 C 106.046875 17.683594 106.273438 16.972656 106.574219 16.28125 C 106.871094 15.589844 107.234375 14.933594 107.660156 14.3125 C 108.089844 13.691406 108.570312 13.117188 109.109375 12.589844 C 109.648438 12.0625 110.230469 11.589844 110.859375 11.175781 C 111.488281 10.761719 112.152344 10.414062 112.851562 10.128906 C 113.546875 9.84375 114.265625 9.628906 115.007812 9.484375 C 115.746094 9.339844 116.492188 9.265625 117.246094 9.265625 C 118 9.265625 118.746094 9.339844 119.484375 9.484375 C 120.222656 9.628906 120.941406 9.84375 121.640625 10.128906 C 122.335938 10.414062 123 10.761719 123.628906 11.175781 C 124.261719 11.589844 124.84375 12.0625 125.382812 12.589844 C 125.921875 13.117188 126.402344 13.691406 126.828125 14.3125 C 127.253906 14.933594 127.617188 15.589844 127.917969 16.28125 C 128.214844 16.972656 128.445312 17.683594 128.605469 18.421875 C 128.765625 19.15625 128.851562 19.902344 128.867188 20.65625 L 128.867188 45.835938 L 133.191406 45.835938 C 134.632812 45.136719 136.152344 44.789062 137.753906 44.789062 C 139.355469 44.789062 140.875 45.136719 142.316406 45.835938 L 154.039062 45.835938 C 154.800781 45.835938 155.554688 45.910156 156.304688 46.058594 C 157.050781 46.210938 157.777344 46.429688 158.480469 46.722656 C 159.1875 47.015625 159.855469 47.375 160.488281 47.796875 C 161.125 48.222656 161.710938 48.703125 162.25 49.242188 C 162.789062 49.78125 163.269531 50.367188 163.695312 51.003906 C 164.121094 51.636719 164.476562 52.304688 164.769531 53.011719 C 165.0625 53.714844 165.28125 54.441406 165.433594 55.1875 C 165.582031 55.9375 165.65625 56.691406 165.65625 57.457031 C 165.65625 58.164062 165.59375 58.863281 165.460938 59.558594 C 168.742188 60.210938 171.496094 61.496094 173.117188 64.378906 C 173.203125 64.53125 173.273438 64.6875 173.351562 64.851562 L 173.65625 63.9375 C 173.910156 63.164062 174.121094 62.378906 174.28125 61.582031 C 174.445312 60.785156 174.558594 59.980469 174.628906 59.167969 C 174.695312 58.355469 174.714844 57.542969 174.683594 56.730469 C 174.65625 55.914062 174.578125 55.105469 174.457031 54.300781 C 174.332031 53.496094 174.160156 52.703125 173.941406 51.917969 C 173.722656 51.132812 173.457031 50.363281 173.148438 49.609375 C 172.839844 48.855469 172.484375 48.125 172.089844 47.414062 C 171.695312 46.703125 171.257812 46.015625 170.78125 45.355469 C 170.304688 44.695312 169.789062 44.066406 169.238281 43.46875 C 168.683594 42.867188 168.101562 42.304688 167.480469 41.773438 C 166.863281 41.242188 166.214844 40.753906 165.539062 40.300781 C 164.863281 39.847656 164.160156 39.433594 163.4375 39.0625 C 162.710938 38.691406 161.964844 38.367188 161.203125 38.085938 C 160.4375 37.800781 159.660156 37.566406 158.867188 37.375 C 158.078125 37.183594 157.277344 37.042969 156.46875 36.945312 C 155.660156 36.851562 154.847656 36.804688 154.03125 36.804688 L 137.910156 36.804688 L 137.910156 20.65625 C 137.898438 19.984375 137.855469 19.316406 137.78125 18.652344 C 137.707031 17.984375 137.597656 17.324219 137.457031 16.667969 C 137.320312 16.011719 137.148438 15.367188 136.945312 14.726562 C 136.742188 14.089844 136.511719 13.460938 136.246094 12.84375 C 135.984375 12.226562 135.691406 11.625 135.367188 11.039062 C 135.046875 10.449219 134.695312 9.878906 134.320312 9.324219 C 133.941406 8.773438 133.539062 8.238281 133.109375 7.722656 C 132.679688 7.210938 132.222656 6.714844 131.746094 6.246094 C 131.269531 5.777344 130.769531 5.328125 130.25 4.910156 C 129.726562 4.488281 129.1875 4.089844 128.628906 3.722656 C 128.070312 3.351562 127.492188 3.011719 126.902344 2.699219 C 126.308594 2.386719 125.703125 2.101562 125.082031 1.847656 C 124.460938 1.59375 123.832031 1.371094 123.1875 1.175781 C 122.546875 0.984375 121.894531 0.824219 121.238281 0.695312 C 120.582031 0.5625 119.917969 0.464844 119.25 0.402344 C 118.585938 0.335938 117.914062 0.304688 117.246094 0.304688 C 116.574219 0.304688 115.90625 0.335938 115.238281 0.402344 C 114.574219 0.464844 113.910156 0.5625 113.253906 0.695312 C 112.59375 0.824219 111.945312 0.984375 111.304688 1.175781 C 110.660156 1.371094 110.03125 1.59375 109.410156 1.847656 C 108.789062 2.101562 108.183594 2.386719 107.589844 2.699219 C 106.996094 3.011719 106.421875 3.351562 105.863281 3.722656 C 105.304688 4.089844 104.761719 4.488281 104.242188 4.910156 C 103.722656 5.328125 103.222656 5.777344 102.742188 6.246094 C 102.265625 6.714844 101.8125 7.210938 101.382812 7.722656 C 100.953125 8.238281 100.550781 8.773438 100.171875 9.324219 C 99.792969 9.878906 99.445312 10.449219 99.121094 11.039062 C 98.800781 11.625 98.507812 12.226562 98.246094 12.84375 C 97.980469 13.460938 97.746094 14.089844 97.546875 14.726562 C 97.34375 15.367188 97.171875 16.011719 97.03125 16.667969 C 96.894531 17.324219 96.785156 17.984375 96.710938 18.652344 C 96.636719 19.316406 96.59375 19.984375 96.582031 20.65625 L 96.582031 21.035156 C 99.011719 26.960938 100.398438 36.246094 98.535156 40.777344 Z M 98.535156 40.777344 " fill-opacity="1" fill-rule="nonzero"/></g><path fill="#7bc1b7" d="M 66.324219 30.175781 C 66.71875 33.152344 69.746094 38.46875 73.371094 42.554688 C 74.859375 44.230469 77.074219 46.386719 79.160156 47.152344 C 81.074219 47.808594 83.03125 47.992188 85.035156 47.695312 L 86.074219 50.078125 C 86.230469 50.433594 86.464844 50.734375 86.773438 50.972656 C 87.082031 51.214844 87.425781 51.367188 87.8125 51.429688 L 87.921875 51.777344 L 89.019531 51.300781 C 89.128906 51.609375 89.242188 51.890625 89.359375 52.160156 C 90.085938 53.828125 91.054688 55.339844 92.257812 56.699219 C 94.382812 59.042969 96.9375 60.730469 99.929688 61.757812 C 104.183594 63.285156 107.761719 62.777344 110.921875 62.324219 C 116.328125 61.550781 119.90625 61.039062 124.816406 71.410156 C 127.644531 77.386719 131.382812 82.828125 135.324219 86.746094 C 140.011719 91.394531 144.992188 93.886719 149.722656 94.011719 C 156.75 94.144531 162.929688 89.324219 168.070312 79.609375 C 171.570312 73.023438 172.441406 68.582031 170.804688 65.6875 C 168.777344 62.085938 163.78125 61.804688 157.992188 61.476562 C 153.585938 61.230469 148.605469 60.949219 144.664062 59.097656 C 144.820312 58.820312 144.957031 58.53125 145.074219 58.234375 C 145.195312 57.9375 145.296875 57.636719 145.378906 57.328125 C 145.460938 57.019531 145.523438 56.707031 145.570312 56.394531 C 145.613281 56.078125 145.640625 55.757812 145.644531 55.441406 C 145.652344 55.121094 145.636719 54.804688 145.605469 54.484375 C 145.574219 54.167969 145.519531 53.855469 145.449219 53.542969 C 145.378906 53.234375 145.289062 52.925781 145.179688 52.625 C 145.074219 52.328125 144.949219 52.035156 144.804688 51.75 C 144.660156 51.464844 144.5 51.1875 144.324219 50.925781 C 144.144531 50.660156 143.953125 50.40625 143.746094 50.164062 C 143.535156 49.921875 143.316406 49.691406 143.078125 49.476562 C 142.84375 49.261719 142.59375 49.0625 142.335938 48.878906 C 142.074219 48.695312 141.804688 48.527344 141.523438 48.375 C 141.242188 48.222656 140.953125 48.089844 140.65625 47.972656 C 140.359375 47.855469 140.058594 47.757812 139.75 47.675781 C 139.441406 47.597656 139.128906 47.535156 138.8125 47.496094 C 138.496094 47.453125 138.175781 47.429688 137.859375 47.425781 C 137.539062 47.425781 137.222656 47.441406 136.902344 47.476562 C 136.585938 47.511719 136.273438 47.566406 135.960938 47.640625 C 135.652344 47.714844 135.347656 47.804688 135.046875 47.917969 C 134.75 48.027344 134.457031 48.15625 134.175781 48.304688 C 133.890625 48.449219 133.617188 48.613281 133.355469 48.792969 C 133.089844 48.972656 132.839844 49.167969 132.597656 49.378906 C 132.359375 49.585938 132.132812 49.8125 131.917969 50.050781 C 131.707031 50.285156 131.507812 50.535156 131.328125 50.796875 C 131.144531 51.0625 130.980469 51.332031 130.828125 51.613281 C 130.679688 51.898438 130.550781 52.1875 130.433594 52.484375 C 130.320312 52.78125 130.226562 53.085938 130.148438 53.394531 C 130.074219 53.707031 130.015625 54.019531 129.976562 54.335938 C 129.9375 54.652344 129.917969 54.96875 129.917969 55.289062 C 129.917969 55.609375 129.9375 55.925781 129.976562 56.242188 C 130.015625 56.558594 130.070312 56.871094 130.148438 57.183594 C 130.226562 57.492188 130.320312 57.796875 130.433594 58.09375 C 130.546875 58.390625 130.679688 58.683594 130.828125 58.964844 C 130.976562 59.246094 131.140625 59.519531 131.324219 59.78125 C 131.507812 60.042969 131.703125 60.292969 131.917969 60.53125 C 132.128906 60.769531 132.355469 60.992188 132.59375 61.203125 C 132.835938 61.414062 133.085938 61.609375 133.351562 61.789062 C 133.613281 61.96875 133.886719 62.132812 134.171875 62.277344 C 134.453125 62.425781 134.746094 62.554688 135.042969 62.664062 C 135.34375 62.773438 135.648438 62.867188 135.957031 62.941406 C 136.269531 63.015625 136.582031 63.070312 136.898438 63.105469 C 137.214844 63.140625 137.535156 63.160156 137.851562 63.15625 C 138.171875 63.152344 138.488281 63.128906 138.804688 63.089844 C 139.121094 63.046875 139.433594 62.988281 139.746094 62.90625 C 140.054688 62.828125 140.355469 62.730469 140.652344 62.613281 C 140.949219 62.496094 141.238281 62.363281 141.519531 62.210938 C 141.800781 62.058594 142.070312 61.890625 142.332031 61.707031 C 147.09375 64.230469 152.777344 64.5625 157.816406 64.839844 C 162.417969 65.097656 166.757812 65.34375 167.875 67.332031 C 168.558594 68.53125 168.625 71.359375 165.101562 78.015625 C 160.589844 86.519531 155.433594 90.777344 149.800781 90.636719 C 140.753906 90.4375 132.328125 79.382812 127.875 69.980469 C 121.890625 57.359375 116.070312 58.191406 110.441406 58.996094 C 107.535156 59.410156 104.539062 59.84375 101.070312 58.597656 C 95.582031 56.625 93.160156 52.910156 92.09375 49.96875 L 92.328125 49.867188 C 92.605469 49.742188 92.851562 49.574219 93.0625 49.351562 C 93.277344 49.132812 93.4375 48.878906 93.550781 48.59375 C 93.660156 48.308594 93.714844 48.015625 93.707031 47.707031 C 93.703125 47.402344 93.640625 47.109375 93.515625 46.828125 L 92.46875 44.449219 C 94.046875 43.179688 95.246094 41.621094 96.0625 39.769531 C 98.074219 34.9375 95.476562 22.632812 92.332031 18.824219 C 90.902344 17.125 88.738281 16.144531 85.996094 15.96875 C 85.636719 15.304688 85.132812 14.78125 84.488281 14.394531 C 83.839844 14.011719 83.140625 13.820312 82.386719 13.820312 C 82.046875 13.820312 81.714844 13.863281 81.386719 13.945312 C 81.058594 14.03125 80.746094 14.152344 80.449219 14.3125 C 80.152344 14.476562 79.878906 14.671875 79.628906 14.898438 C 79.378906 15.128906 79.164062 15.386719 78.976562 15.667969 C 78.792969 15.953125 78.644531 16.253906 78.535156 16.574219 C 78.421875 16.894531 78.355469 17.222656 78.324219 17.558594 C 78.296875 17.894531 78.308594 18.230469 78.363281 18.566406 C 78.417969 18.898438 78.515625 19.222656 78.648438 19.53125 C 78.8125 19.902344 79.023438 20.242188 79.289062 20.550781 C 79.550781 20.859375 79.855469 21.125 80.199219 21.339844 C 80.539062 21.558594 80.90625 21.722656 81.296875 21.832031 C 81.6875 21.941406 82.085938 21.992188 82.492188 21.980469 C 82.894531 21.972656 83.292969 21.902344 83.675781 21.777344 C 84.0625 21.648438 84.421875 21.46875 84.75 21.234375 C 85.082031 21 85.375 20.722656 85.621094 20.40625 C 85.871094 20.085938 86.070312 19.734375 86.214844 19.355469 C 87.746094 19.511719 88.898438 20.019531 89.652344 20.867188 L 89.726562 20.957031 C 90.839844 22.296875 92.070312 25.746094 92.785156 29.523438 C 93.496094 33.304688 93.570312 36.925781 92.941406 38.4375 C 91.792969 41.203125 88.65625 43.058594 87.679688 43.585938 C 86.617188 43.953125 83.136719 44.988281 80.324219 43.949219 C 78.792969 43.386719 76.207031 40.90625 73.894531 37.761719 C 71.578125 34.613281 69.902344 31.417969 69.675781 29.667969 C 69.519531 28.511719 69.929688 27.289062 70.890625 26.003906 C 71.203125 26.128906 71.527344 26.210938 71.859375 26.257812 C 72.191406 26.300781 72.527344 26.304688 72.863281 26.269531 C 73.195312 26.230469 73.523438 26.152344 73.835938 26.035156 C 74.152344 25.917969 74.449219 25.761719 74.726562 25.570312 C 75.003906 25.382812 75.253906 25.160156 75.476562 24.90625 C 75.699219 24.652344 75.886719 24.378906 76.042969 24.078125 C 76.195312 23.777344 76.3125 23.464844 76.386719 23.136719 C 76.464844 22.808594 76.5 22.476562 76.496094 22.140625 C 76.488281 21.804688 76.445312 21.472656 76.355469 21.148438 C 76.269531 20.820312 76.144531 20.511719 75.980469 20.21875 C 75.816406 19.921875 75.621094 19.652344 75.390625 19.40625 C 75.160156 19.160156 74.902344 18.949219 74.617188 18.765625 C 74.335938 18.582031 74.035156 18.4375 73.714844 18.332031 C 73.398438 18.222656 73.070312 18.15625 72.734375 18.128906 C 72.398438 18.101562 72.0625 18.117188 71.730469 18.171875 C 71.398438 18.226562 71.078125 18.320312 70.769531 18.457031 C 70.292969 18.664062 69.871094 18.949219 69.503906 19.320312 C 69.136719 19.6875 68.851562 20.109375 68.644531 20.585938 C 68.4375 21.0625 68.324219 21.558594 68.308594 22.078125 C 68.289062 22.597656 68.367188 23.105469 68.542969 23.59375 C 66.800781 25.722656 66.035156 27.992188 66.324219 30.175781 Z M 66.324219 30.175781 " fill-opacity="1" fill-rule="nonzero"/><g fill="#38b6ff" fill-opacity="1"><g transform="translate(1.986422, 159.010301)"><g><path d="M 19.03125 0 L 14.171875 -7.015625 L 8.8125 -7.015625 L 8.8125 0 L 2.984375 0 L 2.984375 -25.171875 L 13.890625 -25.171875 C 16.117188 -25.171875 18.050781 -24.800781 19.6875 -24.0625 C 21.332031 -23.320312 22.597656 -22.265625 23.484375 -20.890625 C 24.367188 -19.523438 24.8125 -17.910156 24.8125 -16.046875 C 24.8125 -14.171875 24.363281 -12.554688 23.46875 -11.203125 C 22.570312 -9.847656 21.296875 -8.8125 19.640625 -8.09375 L 25.28125 0 Z M 18.921875 -16.046875 C 18.921875 -17.460938 18.460938 -18.546875 17.546875 -19.296875 C 16.640625 -20.054688 15.3125 -20.4375 13.5625 -20.4375 L 8.8125 -20.4375 L 8.8125 -11.65625 L 13.5625 -11.65625 C 15.3125 -11.65625 16.640625 -12.035156 17.546875 -12.796875 C 18.460938 -13.566406 18.921875 -14.648438 18.921875 -16.046875 Z M 18.921875 -16.046875 "/></g></g></g><g fill="#38b6ff" fill-opacity="1"><g transform="translate(28.417967, 159.010301)"><g><path d="M 22.484375 -4.671875 L 22.484375 0 L 2.984375 0 L 2.984375 -25.171875 L 22.015625 -25.171875 L 22.015625 -20.5 L 8.78125 -20.5 L 8.78125 -15.03125 L 20.46875 -15.03125 L 20.46875 -10.5 L 8.78125 -10.5 L 8.78125 -4.671875 Z M 22.484375 -4.671875 "/></g></g></g><g fill="#38b6ff" fill-opacity="1"><g transform="translate(52.547991, 159.010301)"><g><path d="M 20 -12.984375 L 25.328125 -12.984375 L 25.328125 -2.765625 C 23.953125 -1.734375 22.363281 -0.941406 20.5625 -0.390625 C 18.769531 0.160156 16.960938 0.4375 15.140625 0.4375 C 12.523438 0.4375 10.175781 -0.117188 8.09375 -1.234375 C 6.007812 -2.347656 4.375 -3.894531 3.1875 -5.875 C 2 -7.851562 1.40625 -10.09375 1.40625 -12.59375 C 1.40625 -15.082031 2 -17.316406 3.1875 -19.296875 C 4.375 -21.273438 6.019531 -22.820312 8.125 -23.9375 C 10.238281 -25.050781 12.613281 -25.609375 15.25 -25.609375 C 17.457031 -25.609375 19.457031 -25.234375 21.25 -24.484375 C 23.050781 -23.742188 24.566406 -22.664062 25.796875 -21.25 L 22.046875 -17.796875 C 20.242188 -19.691406 18.070312 -20.640625 15.53125 -20.640625 C 13.925781 -20.640625 12.5 -20.300781 11.25 -19.625 C 10.007812 -18.957031 9.039062 -18.015625 8.34375 -16.796875 C 7.644531 -15.578125 7.296875 -14.175781 7.296875 -12.59375 C 7.296875 -11.03125 7.644531 -9.632812 8.34375 -8.40625 C 9.039062 -7.1875 10.003906 -6.234375 11.234375 -5.546875 C 12.472656 -4.867188 13.882812 -4.53125 15.46875 -4.53125 C 17.144531 -4.53125 18.65625 -4.890625 20 -5.609375 Z M 20 -12.984375 "/></g></g></g><g fill="#38b6ff" fill-opacity="1"><g transform="translate(80.274141, 159.010301)"><g><path d="M 2.984375 -25.171875 L 8.8125 -25.171875 L 8.8125 0 L 2.984375 0 Z M 2.984375 -25.171875 "/></g></g></g><g fill="#38b6ff" fill-opacity="1"><g transform="translate(92.06944, 159.010301)"><g/></g></g><g fill="#38b6ff" fill-opacity="1"><g transform="translate(102.246481, 159.010301)"><g><path d="M 11.265625 0.4375 C 9.265625 0.4375 7.335938 0.164062 5.484375 -0.375 C 3.628906 -0.914062 2.132812 -1.617188 1 -2.484375 L 2.984375 -6.875 C 4.066406 -6.082031 5.347656 -5.445312 6.828125 -4.96875 C 8.316406 -4.488281 9.804688 -4.25 11.296875 -4.25 C 12.953125 -4.25 14.175781 -4.492188 14.96875 -4.984375 C 15.757812 -5.472656 16.15625 -6.125 16.15625 -6.9375 C 16.15625 -7.539062 15.921875 -8.039062 15.453125 -8.4375 C 14.984375 -8.832031 14.378906 -9.148438 13.640625 -9.390625 C 12.910156 -9.628906 11.925781 -9.890625 10.6875 -10.171875 C 8.769531 -10.628906 7.195312 -11.085938 5.96875 -11.546875 C 4.75 -12.003906 3.703125 -12.734375 2.828125 -13.734375 C 1.953125 -14.742188 1.515625 -16.085938 1.515625 -17.765625 C 1.515625 -19.234375 1.910156 -20.5625 2.703125 -21.75 C 3.492188 -22.9375 4.6875 -23.875 6.28125 -24.5625 C 7.875 -25.257812 9.820312 -25.609375 12.125 -25.609375 C 13.726562 -25.609375 15.296875 -25.414062 16.828125 -25.03125 C 18.367188 -24.644531 19.710938 -24.09375 20.859375 -23.375 L 19.0625 -18.953125 C 16.738281 -20.273438 14.410156 -20.9375 12.078125 -20.9375 C 10.453125 -20.9375 9.25 -20.671875 8.46875 -20.140625 C 7.6875 -19.609375 7.296875 -18.914062 7.296875 -18.0625 C 7.296875 -17.195312 7.742188 -16.550781 8.640625 -16.125 C 9.546875 -15.707031 10.921875 -15.296875 12.765625 -14.890625 C 14.679688 -14.429688 16.25 -13.972656 17.46875 -13.515625 C 18.695312 -13.066406 19.75 -12.347656 20.625 -11.359375 C 21.5 -10.378906 21.9375 -9.050781 21.9375 -7.375 C 21.9375 -5.9375 21.535156 -4.625 20.734375 -3.4375 C 19.929688 -2.25 18.726562 -1.304688 17.125 -0.609375 C 15.519531 0.0859375 13.566406 0.4375 11.265625 0.4375 Z M 11.265625 0.4375 "/></g></g></g><g fill="#38b6ff" fill-opacity="1"><g transform="translate(125.189776, 159.010301)"><g><path d="M 19.5625 -5.390625 L 7.875 -5.390625 L 5.640625 0 L -0.328125 0 L 10.90625 -25.171875 L 16.65625 -25.171875 L 27.90625 0 L 21.796875 0 Z M 17.734375 -9.8125 L 13.734375 -19.453125 L 9.75 -9.8125 Z M 17.734375 -9.8125 "/></g></g></g><g fill="#38b6ff" fill-opacity="1"><g transform="translate(152.736113, 159.010301)"><g><path d="M 2.984375 -25.171875 L 8.8125 -25.171875 L 8.8125 -4.75 L 21.4375 -4.75 L 21.4375 0 L 2.984375 0 Z M 2.984375 -25.171875 "/></g></g></g><g fill="#38b6ff" fill-opacity="1"><g transform="translate(174.456727, 159.010301)"><g><path d="M 14.171875 0.4375 C 10.578125 0.4375 7.773438 -0.554688 5.765625 -2.546875 C 3.765625 -4.546875 2.765625 -7.390625 2.765625 -11.078125 L 2.765625 -25.171875 L 8.59375 -25.171875 L 8.59375 -11.296875 C 8.59375 -6.785156 10.460938 -4.53125 14.203125 -4.53125 C 16.023438 -4.53125 17.414062 -5.078125 18.375 -6.171875 C 19.332031 -7.265625 19.8125 -8.972656 19.8125 -11.296875 L 19.8125 -25.171875 L 25.578125 -25.171875 L 25.578125 -11.078125 C 25.578125 -7.390625 24.570312 -4.546875 22.5625 -2.546875 C 20.5625 -0.554688 17.765625 0.4375 14.171875 0.4375 Z M 14.171875 0.4375 "/></g></g></g><g fill="#38b6ff" fill-opacity="1"><g transform="translate(202.794218, 159.010301)"><g><path d="M 2.984375 -25.171875 L 14.421875 -25.171875 C 17.160156 -25.171875 19.578125 -24.648438 21.671875 -23.609375 C 23.765625 -22.566406 25.394531 -21.097656 26.5625 -19.203125 C 27.726562 -17.304688 28.3125 -15.101562 28.3125 -12.59375 C 28.3125 -10.070312 27.726562 -7.863281 26.5625 -5.96875 C 25.394531 -4.070312 23.765625 -2.601562 21.671875 -1.5625 C 19.578125 -0.519531 17.160156 0 14.421875 0 L 2.984375 0 Z M 14.140625 -4.78125 C 16.648438 -4.78125 18.65625 -5.484375 20.15625 -6.890625 C 21.65625 -8.296875 22.40625 -10.195312 22.40625 -12.59375 C 22.40625 -14.988281 21.65625 -16.882812 20.15625 -18.28125 C 18.65625 -19.6875 16.648438 -20.390625 14.140625 -20.390625 L 8.8125 -20.390625 L 8.8125 -4.78125 Z M 14.140625 -4.78125 "/></g></g></g><g fill="#0b8fac" fill-opacity="1"><g transform="translate(29.952112, 181.288204)"><g><path d="M 3.671875 0.078125 C 3.046875 0.078125 2.445312 -0.0195312 1.875 -0.21875 C 1.3125 -0.425781 0.875 -0.691406 0.5625 -1.015625 L 0.90625 -1.6875 C 1.207031 -1.382812 1.609375 -1.140625 2.109375 -0.953125 C 2.609375 -0.773438 3.128906 -0.6875 3.671875 -0.6875 C 4.410156 -0.6875 4.96875 -0.820312 5.34375 -1.09375 C 5.71875 -1.363281 5.90625 -1.71875 5.90625 -2.15625 C 5.90625 -2.488281 5.800781 -2.753906 5.59375 -2.953125 C 5.394531 -3.160156 5.148438 -3.316406 4.859375 -3.421875 C 4.566406 -3.523438 4.15625 -3.640625 3.625 -3.765625 C 3 -3.929688 2.5 -4.085938 2.125 -4.234375 C 1.75 -4.378906 1.425781 -4.601562 1.15625 -4.90625 C 0.894531 -5.207031 0.765625 -5.617188 0.765625 -6.140625 C 0.765625 -6.554688 0.875 -6.9375 1.09375 -7.28125 C 1.320312 -7.632812 1.664062 -7.910156 2.125 -8.109375 C 2.582031 -8.316406 3.15625 -8.421875 3.84375 -8.421875 C 4.320312 -8.421875 4.789062 -8.351562 5.25 -8.21875 C 5.707031 -8.09375 6.101562 -7.914062 6.4375 -7.6875 L 6.140625 -6.984375 C 5.785156 -7.210938 5.410156 -7.382812 5.015625 -7.5 C 4.617188 -7.613281 4.226562 -7.671875 3.84375 -7.671875 C 3.113281 -7.671875 2.5625 -7.53125 2.1875 -7.25 C 1.820312 -6.96875 1.640625 -6.601562 1.640625 -6.15625 C 1.640625 -5.820312 1.738281 -5.550781 1.9375 -5.34375 C 2.144531 -5.144531 2.398438 -4.992188 2.703125 -4.890625 C 3.003906 -4.785156 3.414062 -4.664062 3.9375 -4.53125 C 4.550781 -4.382812 5.046875 -4.238281 5.421875 -4.09375 C 5.804688 -3.945312 6.128906 -3.722656 6.390625 -3.421875 C 6.648438 -3.117188 6.78125 -2.710938 6.78125 -2.203125 C 6.78125 -1.785156 6.664062 -1.398438 6.4375 -1.046875 C 6.207031 -0.703125 5.859375 -0.425781 5.390625 -0.21875 C 4.921875 -0.0195312 4.347656 0.078125 3.671875 0.078125 Z M 3.671875 0.078125 "/></g></g></g><g fill="#0b8fac" fill-opacity="1"><g transform="translate(40.877255, 181.288204)"><g><path d="M 1.359375 -8.359375 L 2.25 -8.359375 L 2.25 0 L 1.359375 0 Z M 1.359375 -8.359375 "/></g></g></g><g fill="#0b8fac" fill-opacity="1"><g transform="translate(48.066253, 181.288204)"><g><path d="M 3.671875 0.078125 C 3.046875 0.078125 2.445312 -0.0195312 1.875 -0.21875 C 1.3125 -0.425781 0.875 -0.691406 0.5625 -1.015625 L 0.90625 -1.6875 C 1.207031 -1.382812 1.609375 -1.140625 2.109375 -0.953125 C 2.609375 -0.773438 3.128906 -0.6875 3.671875 -0.6875 C 4.410156 -0.6875 4.96875 -0.820312 5.34375 -1.09375 C 5.71875 -1.363281 5.90625 -1.71875 5.90625 -2.15625 C 5.90625 -2.488281 5.800781 -2.753906 5.59375 -2.953125 C 5.394531 -3.160156 5.148438 -3.316406 4.859375 -3.421875 C 4.566406 -3.523438 4.15625 -3.640625 3.625 -3.765625 C 3 -3.929688 2.5 -4.085938 2.125 -4.234375 C 1.75 -4.378906 1.425781 -4.601562 1.15625 -4.90625 C 0.894531 -5.207031 0.765625 -5.617188 0.765625 -6.140625 C 0.765625 -6.554688 0.875 -6.9375 1.09375 -7.28125 C 1.320312 -7.632812 1.664062 -7.910156 2.125 -8.109375 C 2.582031 -8.316406 3.15625 -8.421875 3.84375 -8.421875 C 4.320312 -8.421875 4.789062 -8.351562 5.25 -8.21875 C 5.707031 -8.09375 6.101562 -7.914062 6.4375 -7.6875 L 6.140625 -6.984375 C 5.785156 -7.210938 5.410156 -7.382812 5.015625 -7.5 C 4.617188 -7.613281 4.226562 -7.671875 3.84375 -7.671875 C 3.113281 -7.671875 2.5625 -7.53125 2.1875 -7.25 C 1.820312 -6.96875 1.640625 -6.601562 1.640625 -6.15625 C 1.640625 -5.820312 1.738281 -5.550781 1.9375 -5.34375 C 2.144531 -5.144531 2.398438 -4.992188 2.703125 -4.890625 C 3.003906 -4.785156 3.414062 -4.664062 3.9375 -4.53125 C 4.550781 -4.382812 5.046875 -4.238281 5.421875 -4.09375 C 5.804688 -3.945312 6.128906 -3.722656 6.390625 -3.421875 C 6.648438 -3.117188 6.78125 -2.710938 6.78125 -2.203125 C 6.78125 -1.785156 6.664062 -1.398438 6.4375 -1.046875 C 6.207031 -0.703125 5.859375 -0.425781 5.390625 -0.21875 C 4.921875 -0.0195312 4.347656 0.078125 3.671875 0.078125 Z M 3.671875 0.078125 "/></g></g></g><g fill="#0b8fac" fill-opacity="1"><g transform="translate(58.991396, 181.288204)"><g><path d="M 2.984375 -7.59375 L 0.046875 -7.59375 L 0.046875 -8.359375 L 6.796875 -8.359375 L 6.796875 -7.59375 L 3.875 -7.59375 L 3.875 0 L 2.984375 0 Z M 2.984375 -7.59375 "/></g></g></g><g fill="#0b8fac" fill-opacity="1"><g transform="translate(69.427139, 181.288204)"><g><path d="M 7.265625 -0.765625 L 7.265625 0 L 1.359375 0 L 1.359375 -8.359375 L 7.09375 -8.359375 L 7.09375 -7.59375 L 2.25 -7.59375 L 2.25 -4.625 L 6.5625 -4.625 L 6.5625 -3.875 L 2.25 -3.875 L 2.25 -0.765625 Z M 7.265625 -0.765625 "/></g></g></g><g fill="#0b8fac" fill-opacity="1"><g transform="translate(80.996847, 181.288204)"><g><path d="M 10.046875 -8.359375 L 10.046875 0 L 9.1875 0 L 9.1875 -6.6875 L 5.90625 -1.0625 L 5.484375 -1.0625 L 2.203125 -6.65625 L 2.203125 0 L 1.359375 0 L 1.359375 -8.359375 L 2.09375 -8.359375 L 5.71875 -2.15625 L 9.3125 -8.359375 Z M 10.046875 -8.359375 "/></g></g></g><g fill="#0b8fac" fill-opacity="1"><g transform="translate(95.980407, 181.288204)"><g><path d="M 6.59375 -2.234375 L 1.953125 -2.234375 L 0.9375 0 L 0.03125 0 L 3.84375 -8.359375 L 4.71875 -8.359375 L 8.53125 0 L 7.609375 0 Z M 6.28125 -2.953125 L 4.28125 -7.4375 L 2.265625 -2.953125 Z M 6.28125 -2.953125 "/></g></g></g><g fill="#0b8fac" fill-opacity="1"><g transform="translate(108.123075, 181.288204)"><g/></g></g><g fill="#0b8fac" fill-opacity="1"><g transform="translate(114.834614, 181.288204)"><g><path d="M 1.359375 -8.359375 L 4.765625 -8.359375 C 5.648438 -8.359375 6.429688 -8.179688 7.109375 -7.828125 C 7.785156 -7.472656 8.304688 -6.976562 8.671875 -6.34375 C 9.046875 -5.707031 9.234375 -4.984375 9.234375 -4.171875 C 9.234375 -3.359375 9.046875 -2.632812 8.671875 -2 C 8.304688 -1.375 7.785156 -0.882812 7.109375 -0.53125 C 6.429688 -0.175781 5.648438 0 4.765625 0 L 1.359375 0 Z M 4.71875 -0.765625 C 5.445312 -0.765625 6.085938 -0.910156 6.640625 -1.203125 C 7.191406 -1.492188 7.617188 -1.894531 7.921875 -2.40625 C 8.222656 -2.914062 8.375 -3.503906 8.375 -4.171875 C 8.375 -4.847656 8.222656 -5.441406 7.921875 -5.953125 C 7.617188 -6.460938 7.191406 -6.863281 6.640625 -7.15625 C 6.085938 -7.445312 5.445312 -7.59375 4.71875 -7.59375 L 2.25 -7.59375 L 2.25 -0.765625 Z M 4.71875 -0.765625 "/></g></g></g><g fill="#0b8fac" fill-opacity="1"><g transform="translate(128.27836, 181.288204)"><g><path d="M 7.265625 -0.765625 L 7.265625 0 L 1.359375 0 L 1.359375 -8.359375 L 7.09375 -8.359375 L 7.09375 -7.59375 L 2.25 -7.59375 L 2.25 -4.625 L 6.5625 -4.625 L 6.5625 -3.875 L 2.25 -3.875 L 2.25 -0.765625 Z M 7.265625 -0.765625 "/></g></g></g><g fill="#0b8fac" fill-opacity="1"><g transform="translate(139.848074, 181.288204)"><g/></g></g><g fill="#0b8fac" fill-opacity="1"><g transform="translate(146.55962, 181.288204)"><g><path d="M 4.984375 0.078125 C 4.160156 0.078125 3.414062 -0.101562 2.75 -0.46875 C 2.082031 -0.84375 1.5625 -1.351562 1.1875 -2 C 0.8125 -2.644531 0.625 -3.367188 0.625 -4.171875 C 0.625 -4.984375 0.8125 -5.710938 1.1875 -6.359375 C 1.5625 -7.003906 2.082031 -7.507812 2.75 -7.875 C 3.425781 -8.238281 4.175781 -8.421875 5 -8.421875 C 5.625 -8.421875 6.195312 -8.316406 6.71875 -8.109375 C 7.25 -7.910156 7.695312 -7.609375 8.0625 -7.203125 L 7.5 -6.65625 C 6.84375 -7.3125 6.019531 -7.640625 5.03125 -7.640625 C 4.363281 -7.640625 3.757812 -7.488281 3.21875 -7.1875 C 2.675781 -6.882812 2.253906 -6.46875 1.953125 -5.9375 C 1.648438 -5.414062 1.5 -4.828125 1.5 -4.171875 C 1.5 -3.523438 1.648438 -2.9375 1.953125 -2.40625 C 2.253906 -1.882812 2.675781 -1.472656 3.21875 -1.171875 C 3.757812 -0.867188 4.363281 -0.71875 5.03125 -0.71875 C 6.03125 -0.71875 6.851562 -1.050781 7.5 -1.71875 L 8.0625 -1.15625 C 7.695312 -0.757812 7.25 -0.453125 6.71875 -0.234375 C 6.1875 -0.0234375 5.609375 0.078125 4.984375 0.078125 Z M 4.984375 0.078125 "/></g></g></g><g fill="#0b8fac" fill-opacity="1"><g transform="translate(158.726154, 181.288204)"><g><path d="M 7.265625 -0.765625 L 7.265625 0 L 1.359375 0 L 1.359375 -8.359375 L 7.09375 -8.359375 L 7.09375 -7.59375 L 2.25 -7.59375 L 2.25 -4.625 L 6.5625 -4.625 L 6.5625 -3.875 L 2.25 -3.875 L 2.25 -0.765625 Z M 7.265625 -0.765625 "/></g></g></g><g fill="#0b8fac" fill-opacity="1"><g transform="translate(170.295869, 181.288204)"><g><path d="M 8.34375 -8.359375 L 8.34375 0 L 7.609375 0 L 2.25 -6.78125 L 2.25 0 L 1.359375 0 L 1.359375 -8.359375 L 2.09375 -8.359375 L 7.46875 -1.578125 L 7.46875 -8.359375 Z M 8.34375 -8.359375 "/></g></g></g><g fill="#0b8fac" fill-opacity="1"><g transform="translate(183.584438, 181.288204)"><g><path d="M 3.671875 0.078125 C 3.046875 0.078125 2.445312 -0.0195312 1.875 -0.21875 C 1.3125 -0.425781 0.875 -0.691406 0.5625 -1.015625 L 0.90625 -1.6875 C 1.207031 -1.382812 1.609375 -1.140625 2.109375 -0.953125 C 2.609375 -0.773438 3.128906 -0.6875 3.671875 -0.6875 C 4.410156 -0.6875 4.96875 -0.820312 5.34375 -1.09375 C 5.71875 -1.363281 5.90625 -1.71875 5.90625 -2.15625 C 5.90625 -2.488281 5.800781 -2.753906 5.59375 -2.953125 C 5.394531 -3.160156 5.148438 -3.316406 4.859375 -3.421875 C 4.566406 -3.523438 4.15625 -3.640625 3.625 -3.765625 C 3 -3.929688 2.5 -4.085938 2.125 -4.234375 C 1.75 -4.378906 1.425781 -4.601562 1.15625 -4.90625 C 0.894531 -5.207031 0.765625 -5.617188 0.765625 -6.140625 C 0.765625 -6.554688 0.875 -6.9375 1.09375 -7.28125 C 1.320312 -7.632812 1.664062 -7.910156 2.125 -8.109375 C 2.582031 -8.316406 3.15625 -8.421875 3.84375 -8.421875 C 4.320312 -8.421875 4.789062 -8.351562 5.25 -8.21875 C 5.707031 -8.09375 6.101562 -7.914062 6.4375 -7.6875 L 6.140625 -6.984375 C 5.785156 -7.210938 5.410156 -7.382812 5.015625 -7.5 C 4.617188 -7.613281 4.226562 -7.671875 3.84375 -7.671875 C 3.113281 -7.671875 2.5625 -7.53125 2.1875 -7.25 C 1.820312 -6.96875 1.640625 -6.601562 1.640625 -6.15625 C 1.640625 -5.820312 1.738281 -5.550781 1.9375 -5.34375 C 2.144531 -5.144531 2.398438 -4.992188 2.703125 -4.890625 C 3.003906 -4.785156 3.414062 -4.664062 3.9375 -4.53125 C 4.550781 -4.382812 5.046875 -4.238281 5.421875 -4.09375 C 5.804688 -3.945312 6.128906 -3.722656 6.390625 -3.421875 C 6.648438 -3.117188 6.78125 -2.710938 6.78125 -2.203125 C 6.78125 -1.785156 6.664062 -1.398438 6.4375 -1.046875 C 6.207031 -0.703125 5.859375 -0.425781 5.390625 -0.21875 C 4.921875 -0.0195312 4.347656 0.078125 3.671875 0.078125 Z M 3.671875 0.078125 "/></g></g></g><g fill="#0b8fac" fill-opacity="1"><g transform="translate(194.509587, 181.288204)"><g><path d="M 5.015625 0.078125 C 4.179688 0.078125 3.425781 -0.101562 2.75 -0.46875 C 2.082031 -0.84375 1.5625 -1.351562 1.1875 -2 C 0.8125 -2.644531 0.625 -3.367188 0.625 -4.171875 C 0.625 -4.984375 0.8125 -5.707031 1.1875 -6.34375 C 1.5625 -6.988281 2.082031 -7.492188 2.75 -7.859375 C 3.425781 -8.234375 4.179688 -8.421875 5.015625 -8.421875 C 5.835938 -8.421875 6.582031 -8.238281 7.25 -7.875 C 7.914062 -7.507812 8.4375 -7.003906 8.8125 -6.359375 C 9.195312 -5.710938 9.390625 -4.984375 9.390625 -4.171875 C 9.390625 -3.367188 9.195312 -2.644531 8.8125 -2 C 8.4375 -1.351562 7.914062 -0.84375 7.25 -0.46875 C 6.582031 -0.101562 5.835938 0.078125 5.015625 0.078125 Z M 5.015625 -0.71875 C 5.671875 -0.71875 6.265625 -0.863281 6.796875 -1.15625 C 7.335938 -1.457031 7.757812 -1.875 8.0625 -2.40625 C 8.363281 -2.9375 8.515625 -3.523438 8.515625 -4.171875 C 8.515625 -4.828125 8.363281 -5.421875 8.0625 -5.953125 C 7.757812 -6.484375 7.335938 -6.894531 6.796875 -7.1875 C 6.265625 -7.488281 5.671875 -7.640625 5.015625 -7.640625 C 4.347656 -7.640625 3.742188 -7.488281 3.203125 -7.1875 C 2.671875 -6.894531 2.253906 -6.484375 1.953125 -5.953125 C 1.648438 -5.421875 1.5 -4.828125 1.5 -4.171875 C 1.5 -3.523438 1.648438 -2.9375 1.953125 -2.40625 C 2.253906 -1.875 2.671875 -1.457031 3.203125 -1.15625 C 3.742188 -0.863281 4.347656 -0.71875 5.015625 -0.71875 Z M 5.015625 -0.71875 "/></g></g></g><g fill="#0b8fac" fill-opacity="1"><g transform="translate(51.290654, 197.733013)"><g><path d="M 8.34375 -8.359375 L 8.34375 0 L 7.46875 0 L 7.46875 -3.859375 L 2.25 -3.859375 L 2.25 0 L 1.359375 0 L 1.359375 -8.359375 L 2.25 -8.359375 L 2.25 -4.625 L 7.46875 -4.625 L 7.46875 -8.359375 Z M 8.34375 -8.359375 "/></g></g></g><g fill="#0b8fac" fill-opacity="1"><g transform="translate(64.579229, 197.733013)"><g><path d="M 5.015625 0.078125 C 4.179688 0.078125 3.425781 -0.101562 2.75 -0.46875 C 2.082031 -0.84375 1.5625 -1.351562 1.1875 -2 C 0.8125 -2.644531 0.625 -3.367188 0.625 -4.171875 C 0.625 -4.984375 0.8125 -5.707031 1.1875 -6.34375 C 1.5625 -6.988281 2.082031 -7.492188 2.75 -7.859375 C 3.425781 -8.234375 4.179688 -8.421875 5.015625 -8.421875 C 5.835938 -8.421875 6.582031 -8.238281 7.25 -7.875 C 7.914062 -7.507812 8.4375 -7.003906 8.8125 -6.359375 C 9.195312 -5.710938 9.390625 -4.984375 9.390625 -4.171875 C 9.390625 -3.367188 9.195312 -2.644531 8.8125 -2 C 8.4375 -1.351562 7.914062 -0.84375 7.25 -0.46875 C 6.582031 -0.101562 5.835938 0.078125 5.015625 0.078125 Z M 5.015625 -0.71875 C 5.671875 -0.71875 6.265625 -0.863281 6.796875 -1.15625 C 7.335938 -1.457031 7.757812 -1.875 8.0625 -2.40625 C 8.363281 -2.9375 8.515625 -3.523438 8.515625 -4.171875 C 8.515625 -4.828125 8.363281 -5.421875 8.0625 -5.953125 C 7.757812 -6.484375 7.335938 -6.894531 6.796875 -7.1875 C 6.265625 -7.488281 5.671875 -7.640625 5.015625 -7.640625 C 4.347656 -7.640625 3.742188 -7.488281 3.203125 -7.1875 C 2.671875 -6.894531 2.253906 -6.484375 1.953125 -5.953125 C 1.648438 -5.421875 1.5 -4.828125 1.5 -4.171875 C 1.5 -3.523438 1.648438 -2.9375 1.953125 -2.40625 C 2.253906 -1.875 2.671875 -1.457031 3.203125 -1.15625 C 3.742188 -0.863281 4.347656 -0.71875 5.015625 -0.71875 Z M 5.015625 -0.71875 "/></g></g></g><g fill="#0b8fac" fill-opacity="1"><g transform="translate(78.178158, 197.733013)"><g><path d="M 3.671875 0.078125 C 3.046875 0.078125 2.445312 -0.0195312 1.875 -0.21875 C 1.3125 -0.425781 0.875 -0.691406 0.5625 -1.015625 L 0.90625 -1.6875 C 1.207031 -1.382812 1.609375 -1.140625 2.109375 -0.953125 C 2.609375 -0.773438 3.128906 -0.6875 3.671875 -0.6875 C 4.410156 -0.6875 4.96875 -0.820312 5.34375 -1.09375 C 5.71875 -1.363281 5.90625 -1.71875 5.90625 -2.15625 C 5.90625 -2.488281 5.800781 -2.753906 5.59375 -2.953125 C 5.394531 -3.160156 5.148438 -3.316406 4.859375 -3.421875 C 4.566406 -3.523438 4.15625 -3.640625 3.625 -3.765625 C 3 -3.929688 2.5 -4.085938 2.125 -4.234375 C 1.75 -4.378906 1.425781 -4.601562 1.15625 -4.90625 C 0.894531 -5.207031 0.765625 -5.617188 0.765625 -6.140625 C 0.765625 -6.554688 0.875 -6.9375 1.09375 -7.28125 C 1.320312 -7.632812 1.664062 -7.910156 2.125 -8.109375 C 2.582031 -8.316406 3.15625 -8.421875 3.84375 -8.421875 C 4.320312 -8.421875 4.789062 -8.351562 5.25 -8.21875 C 5.707031 -8.09375 6.101562 -7.914062 6.4375 -7.6875 L 6.140625 -6.984375 C 5.785156 -7.210938 5.410156 -7.382812 5.015625 -7.5 C 4.617188 -7.613281 4.226562 -7.671875 3.84375 -7.671875 C 3.113281 -7.671875 2.5625 -7.53125 2.1875 -7.25 C 1.820312 -6.96875 1.640625 -6.601562 1.640625 -6.15625 C 1.640625 -5.820312 1.738281 -5.550781 1.9375 -5.34375 C 2.144531 -5.144531 2.398438 -4.992188 2.703125 -4.890625 C 3.003906 -4.785156 3.414062 -4.664062 3.9375 -4.53125 C 4.550781 -4.382812 5.046875 -4.238281 5.421875 -4.09375 C 5.804688 -3.945312 6.128906 -3.722656 6.390625 -3.421875 C 6.648438 -3.117188 6.78125 -2.710938 6.78125 -2.203125 C 6.78125 -1.785156 6.664062 -1.398438 6.4375 -1.046875 C 6.207031 -0.703125 5.859375 -0.425781 5.390625 -0.21875 C 4.921875 -0.0195312 4.347656 0.078125 3.671875 0.078125 Z M 3.671875 0.078125 "/></g></g></g><g fill="#0b8fac" fill-opacity="1"><g transform="translate(89.103301, 197.733013)"><g><path d="M 4.484375 -8.359375 C 5.554688 -8.359375 6.394531 -8.101562 7 -7.59375 C 7.601562 -7.082031 7.90625 -6.378906 7.90625 -5.484375 C 7.90625 -4.597656 7.601562 -3.898438 7 -3.390625 C 6.394531 -2.890625 5.554688 -2.640625 4.484375 -2.640625 L 2.25 -2.640625 L 2.25 0 L 1.359375 0 L 1.359375 -8.359375 Z M 4.46875 -3.421875 C 5.289062 -3.421875 5.921875 -3.597656 6.359375 -3.953125 C 6.796875 -4.316406 7.015625 -4.828125 7.015625 -5.484375 C 7.015625 -6.160156 6.796875 -6.679688 6.359375 -7.046875 C 5.921875 -7.410156 5.289062 -7.59375 4.46875 -7.59375 L 2.25 -7.59375 L 2.25 -3.421875 Z M 4.46875 -3.421875 "/></g></g></g><g fill="#0b8fac" fill-opacity="1"><g transform="translate(101.257899, 197.733013)"><g><path d="M 1.359375 -8.359375 L 2.25 -8.359375 L 2.25 0 L 1.359375 0 Z M 1.359375 -8.359375 "/></g></g></g><g fill="#0b8fac" fill-opacity="1"><g transform="translate(108.446897, 197.733013)"><g><path d="M 2.984375 -7.59375 L 0.046875 -7.59375 L 0.046875 -8.359375 L 6.796875 -8.359375 L 6.796875 -7.59375 L 3.875 -7.59375 L 3.875 0 L 2.984375 0 Z M 2.984375 -7.59375 "/></g></g></g><g fill="#0b8fac" fill-opacity="1"><g transform="translate(118.88264, 197.733013)"><g><path d="M 6.59375 -2.234375 L 1.953125 -2.234375 L 0.9375 0 L 0.03125 0 L 3.84375 -8.359375 L 4.71875 -8.359375 L 8.53125 0 L 7.609375 0 Z M 6.28125 -2.953125 L 4.28125 -7.4375 L 2.265625 -2.953125 Z M 6.28125 -2.953125 "/></g></g></g><g fill="#0b8fac" fill-opacity="1"><g transform="translate(131.025308, 197.733013)"><g><path d="M 1.359375 -8.359375 L 2.25 -8.359375 L 2.25 -0.765625 L 6.921875 -0.765625 L 6.921875 0 L 1.359375 0 Z M 1.359375 -8.359375 "/></g></g></g><g fill="#0b8fac" fill-opacity="1"><g transform="translate(141.640099, 197.733013)"><g><path d="M 6.59375 -2.234375 L 1.953125 -2.234375 L 0.9375 0 L 0.03125 0 L 3.84375 -8.359375 L 4.71875 -8.359375 L 8.53125 0 L 7.609375 0 Z M 6.28125 -2.953125 L 4.28125 -7.4375 L 2.265625 -2.953125 Z M 6.28125 -2.953125 "/></g></g></g><g fill="#0b8fac" fill-opacity="1"><g transform="translate(153.782761, 197.733013)"><g><path d="M 7.0625 0 L 5.15625 -2.6875 C 4.9375 -2.664062 4.710938 -2.65625 4.484375 -2.65625 L 2.25 -2.65625 L 2.25 0 L 1.359375 0 L 1.359375 -8.359375 L 4.484375 -8.359375 C 5.554688 -8.359375 6.394531 -8.101562 7 -7.59375 C 7.601562 -7.082031 7.90625 -6.378906 7.90625 -5.484375 C 7.90625 -4.835938 7.738281 -4.285156 7.40625 -3.828125 C 7.070312 -3.378906 6.601562 -3.054688 6 -2.859375 L 8.03125 0 Z M 4.46875 -3.40625 C 5.289062 -3.40625 5.921875 -3.585938 6.359375 -3.953125 C 6.796875 -4.316406 7.015625 -4.828125 7.015625 -5.484375 C 7.015625 -6.160156 6.796875 -6.679688 6.359375 -7.046875 C 5.921875 -7.410156 5.289062 -7.59375 4.46875 -7.59375 L 2.25 -7.59375 L 2.25 -3.40625 Z M 4.46875 -3.40625 "/></g></g></g><g fill="#0b8fac" fill-opacity="1"><g transform="translate(165.997041, 197.733013)"><g><path d="M 1.359375 -8.359375 L 2.25 -8.359375 L 2.25 0 L 1.359375 0 Z M 1.359375 -8.359375 "/></g></g></g><g fill="#0b8fac" fill-opacity="1"><g transform="translate(173.186033, 197.733013)"><g><path d="M 5.015625 0.078125 C 4.179688 0.078125 3.425781 -0.101562 2.75 -0.46875 C 2.082031 -0.84375 1.5625 -1.351562 1.1875 -2 C 0.8125 -2.644531 0.625 -3.367188 0.625 -4.171875 C 0.625 -4.984375 0.8125 -5.707031 1.1875 -6.34375 C 1.5625 -6.988281 2.082031 -7.492188 2.75 -7.859375 C 3.425781 -8.234375 4.179688 -8.421875 5.015625 -8.421875 C 5.835938 -8.421875 6.582031 -8.238281 7.25 -7.875 C 7.914062 -7.507812 8.4375 -7.003906 8.8125 -6.359375 C 9.195312 -5.710938 9.390625 -4.984375 9.390625 -4.171875 C 9.390625 -3.367188 9.195312 -2.644531 8.8125 -2 C 8.4375 -1.351562 7.914062 -0.84375 7.25 -0.46875 C 6.582031 -0.101562 5.835938 0.078125 5.015625 0.078125 Z M 5.015625 -0.71875 C 5.671875 -0.71875 6.265625 -0.863281 6.796875 -1.15625 C 7.335938 -1.457031 7.757812 -1.875 8.0625 -2.40625 C 8.363281 -2.9375 8.515625 -3.523438 8.515625 -4.171875 C 8.515625 -4.828125 8.363281 -5.421875 8.0625 -5.953125 C 7.757812 -6.484375 7.335938 -6.894531 6.796875 -7.1875 C 6.265625 -7.488281 5.671875 -7.640625 5.015625 -7.640625 C 4.347656 -7.640625 3.742188 -7.488281 3.203125 -7.1875 C 2.671875 -6.894531 2.253906 -6.484375 1.953125 -5.953125 C 1.648438 -5.421875 1.5 -4.828125 1.5 -4.171875 C 1.5 -3.523438 1.648438 -2.9375 1.953125 -2.40625 C 2.253906 -1.875 2.671875 -1.457031 3.203125 -1.15625 C 3.742188 -0.863281 4.347656 -0.71875 5.015625 -0.71875 Z M 5.015625 -0.71875 "/></g></g></g></svg>