<svg xmlns="http://www.w3.org/2000/svg" xmlns:xlink="http://www.w3.org/1999/xlink" width="57" zoomAndPan="magnify" viewBox="0 0 42.75 42.75" height="57" preserveAspectRatio="xMidYMid meet" version="1.0"><defs><clipPath id="5951a58b99"><path d="M 0 15 L 29 15 L 29 42.5 L 0 42.5 Z M 0 15 " clip-rule="nonzero"/></clipPath><clipPath id="534ec71e94"><path d="M 13 0.0234375 L 42.476562 0.0234375 L 42.476562 24 L 13 24 Z M 13 0.0234375 " clip-rule="nonzero"/></clipPath></defs><g clip-path="url(#5951a58b99)"><path fill="#7bc1b7" d="M 27.230469 32.785156 C 26.617188 32.171875 26.050781 31.515625 25.535156 30.820312 L 25.535156 34.867188 C 25.542969 35.152344 25.519531 35.4375 25.46875 35.71875 C 25.417969 36 25.339844 36.273438 25.234375 36.539062 C 25.128906 36.804688 24.996094 37.058594 24.84375 37.296875 C 24.6875 37.535156 24.507812 37.757812 24.308594 37.960938 C 24.109375 38.167969 23.890625 38.347656 23.652344 38.511719 C 23.417969 38.671875 23.167969 38.804688 22.902344 38.917969 C 22.640625 39.027344 22.367188 39.109375 22.089844 39.167969 C 21.808594 39.222656 21.523438 39.253906 21.238281 39.253906 C 20.953125 39.253906 20.671875 39.222656 20.390625 39.167969 C 20.109375 39.109375 19.839844 39.027344 19.574219 38.917969 C 19.3125 38.804688 19.0625 38.671875 18.824219 38.511719 C 18.589844 38.347656 18.371094 38.167969 18.167969 37.960938 C 17.96875 37.757812 17.792969 37.535156 17.636719 37.296875 C 17.480469 37.058594 17.351562 36.804688 17.246094 36.539062 C 17.140625 36.273438 17.0625 36 17.011719 35.71875 C 16.960938 35.4375 16.9375 35.152344 16.941406 34.867188 L 16.941406 25.558594 L 7.636719 25.558594 C 7.179688 25.558594 6.738281 25.488281 6.304688 25.347656 C 5.875 25.207031 5.472656 25.003906 5.105469 24.734375 C 4.738281 24.46875 4.421875 24.148438 4.15625 23.78125 C 3.890625 23.414062 3.6875 23.011719 3.546875 22.578125 C 3.40625 22.148438 3.339844 21.703125 3.339844 21.25 C 3.339844 20.792969 3.414062 20.351562 3.554688 19.921875 C 3.699219 19.488281 3.902344 19.089844 4.171875 18.722656 C 4.441406 18.355469 4.761719 18.039062 5.128906 17.777344 L 5.457031 17.542969 C 5.035156 17.191406 4.644531 16.8125 4.28125 16.402344 C 3.898438 15.964844 3.542969 15.511719 3.207031 15.039062 L 3.050781 15.15625 C 2.410156 15.636719 1.859375 16.203125 1.394531 16.859375 C 0.933594 17.515625 0.585938 18.222656 0.34375 18.988281 C 0.105469 19.753906 -0.0078125 20.535156 0 21.335938 C 0.0078125 22.140625 0.136719 22.917969 0.390625 23.679688 C 0.644531 24.4375 1.011719 25.140625 1.484375 25.789062 C 1.960938 26.433594 2.523438 26.988281 3.171875 27.457031 C 3.820312 27.925781 4.527344 28.285156 5.289062 28.53125 C 6.050781 28.777344 6.835938 28.898438 7.636719 28.898438 L 13.601562 28.898438 L 13.601562 34.859375 C 13.59375 35.367188 13.636719 35.871094 13.726562 36.367188 C 13.820312 36.867188 13.960938 37.351562 14.148438 37.820312 C 14.335938 38.289062 14.570312 38.738281 14.847656 39.160156 C 15.125 39.585938 15.441406 39.976562 15.796875 40.335938 C 16.152344 40.699219 16.539062 41.019531 16.957031 41.304688 C 17.378906 41.589844 17.820312 41.828125 18.289062 42.023438 C 18.757812 42.21875 19.238281 42.367188 19.734375 42.464844 C 20.230469 42.566406 20.734375 42.617188 21.238281 42.617188 C 21.746094 42.617188 22.246094 42.566406 22.742188 42.464844 C 23.238281 42.367188 23.722656 42.21875 24.1875 42.023438 C 24.65625 41.828125 25.101562 41.589844 25.519531 41.304688 C 25.9375 41.019531 26.324219 40.699219 26.679688 40.335938 C 27.035156 39.976562 27.351562 39.585938 27.628906 39.160156 C 27.90625 38.738281 28.140625 38.289062 28.328125 37.820312 C 28.519531 37.351562 28.660156 36.867188 28.75 36.367188 C 28.84375 35.871094 28.886719 35.367188 28.878906 34.859375 L 28.878906 34.175781 C 28.289062 33.757812 27.742188 33.292969 27.230469 32.785156 Z M 27.230469 32.785156 " fill-opacity="1" fill-rule="nonzero"/></g><g clip-path="url(#534ec71e94)"><path fill="#38b6ff" d="M 14.324219 15.097656 C 14.070312 15.6875 13.714844 16.21875 13.265625 16.679688 L 13.378906 16.929688 L 13.378906 16.957031 L 16.941406 16.957031 L 16.941406 7.65625 C 16.949219 7.378906 16.980469 7.105469 17.039062 6.832031 C 17.097656 6.558594 17.183594 6.296875 17.292969 6.039062 C 17.40625 5.785156 17.539062 5.542969 17.695312 5.3125 C 17.855469 5.082031 18.03125 4.871094 18.230469 4.675781 C 18.429688 4.480469 18.644531 4.304688 18.878906 4.152344 C 19.113281 4 19.355469 3.871094 19.613281 3.765625 C 19.871094 3.660156 20.136719 3.582031 20.410156 3.527344 C 20.683594 3.472656 20.960938 3.445312 21.238281 3.445312 C 21.519531 3.445312 21.792969 3.472656 22.066406 3.527344 C 22.339844 3.582031 22.605469 3.660156 22.863281 3.765625 C 23.121094 3.871094 23.367188 4 23.597656 4.152344 C 23.832031 4.304688 24.046875 4.480469 24.246094 4.675781 C 24.445312 4.871094 24.625 5.082031 24.78125 5.3125 C 24.9375 5.542969 25.074219 5.785156 25.183594 6.039062 C 25.292969 6.296875 25.378906 6.558594 25.4375 6.832031 C 25.496094 7.105469 25.53125 7.378906 25.535156 7.65625 L 25.535156 16.964844 L 27.132812 16.964844 C 27.664062 16.707031 28.226562 16.578125 28.820312 16.578125 C 29.410156 16.578125 29.972656 16.707031 30.507812 16.964844 L 34.839844 16.964844 C 35.121094 16.964844 35.398438 16.992188 35.675781 17.046875 C 35.953125 17.101562 36.222656 17.183594 36.480469 17.292969 C 36.742188 17.402344 36.988281 17.535156 37.222656 17.691406 C 37.457031 17.847656 37.675781 18.023438 37.875 18.222656 C 38.074219 18.421875 38.253906 18.640625 38.410156 18.875 C 38.566406 19.109375 38.699219 19.355469 38.804688 19.617188 C 38.914062 19.878906 38.996094 20.144531 39.050781 20.421875 C 39.105469 20.699219 39.132812 20.976562 39.132812 21.261719 C 39.132812 21.523438 39.109375 21.78125 39.0625 22.039062 C 40.273438 22.277344 41.292969 22.753906 41.890625 23.820312 C 41.925781 23.875 41.949219 23.933594 41.976562 23.996094 L 42.089844 23.65625 C 42.183594 23.371094 42.261719 23.082031 42.324219 22.785156 C 42.382812 22.492188 42.425781 22.191406 42.449219 21.894531 C 42.476562 21.59375 42.480469 21.292969 42.472656 20.992188 C 42.460938 20.691406 42.433594 20.390625 42.386719 20.09375 C 42.339844 19.796875 42.277344 19.503906 42.195312 19.214844 C 42.117188 18.921875 42.019531 18.640625 41.902344 18.359375 C 41.789062 18.082031 41.660156 17.8125 41.511719 17.546875 C 41.367188 17.285156 41.203125 17.03125 41.027344 16.789062 C 40.851562 16.542969 40.660156 16.3125 40.457031 16.089844 C 40.253906 15.867188 40.039062 15.660156 39.808594 15.464844 C 39.582031 15.269531 39.339844 15.085938 39.089844 14.917969 C 38.839844 14.75 38.582031 14.597656 38.3125 14.460938 C 38.046875 14.324219 37.769531 14.203125 37.488281 14.101562 C 37.207031 13.996094 36.917969 13.90625 36.625 13.835938 C 36.332031 13.765625 36.035156 13.714844 35.738281 13.679688 C 35.4375 13.644531 35.136719 13.625 34.835938 13.625 L 28.878906 13.625 L 28.878906 7.65625 C 28.871094 7.160156 28.8125 6.667969 28.710938 6.183594 C 28.609375 5.699219 28.457031 5.226562 28.261719 4.769531 C 28.066406 4.3125 27.828125 3.878906 27.550781 3.46875 C 27.269531 3.058594 26.953125 2.679688 26.597656 2.332031 C 26.246094 1.980469 25.863281 1.671875 25.445312 1.398438 C 25.03125 1.125 24.59375 0.894531 24.136719 0.703125 C 23.675781 0.515625 23.203125 0.375 22.714844 0.277344 C 22.226562 0.183594 21.734375 0.132812 21.238281 0.132812 C 20.742188 0.132812 20.25 0.183594 19.761719 0.277344 C 19.277344 0.375 18.800781 0.515625 18.34375 0.703125 C 17.882812 0.894531 17.445312 1.125 17.03125 1.398438 C 16.617188 1.671875 16.234375 1.980469 15.878906 2.332031 C 15.523438 2.679688 15.207031 3.058594 14.929688 3.46875 C 14.648438 3.878906 14.410156 4.3125 14.214844 4.769531 C 14.019531 5.226562 13.871094 5.699219 13.765625 6.183594 C 13.664062 6.667969 13.609375 7.160156 13.601562 7.65625 L 13.601562 7.796875 C 14.5 9.988281 15.011719 13.421875 14.324219 15.097656 Z M 14.324219 15.097656 " fill-opacity="1" fill-rule="nonzero"/></g><path fill="#7bc1b7" d="M 2.417969 11.175781 C 2.5625 12.277344 3.679688 14.242188 5.019531 15.753906 C 5.570312 16.371094 6.390625 17.167969 7.160156 17.453125 C 7.867188 17.695312 8.589844 17.761719 9.332031 17.652344 L 9.71875 18.53125 C 9.839844 18.816406 10.054688 18.984375 10.359375 19.03125 L 10.398438 19.160156 L 10.804688 18.984375 C 10.84375 19.097656 10.886719 19.203125 10.929688 19.304688 C 11.199219 19.917969 11.558594 20.476562 12.003906 20.980469 C 12.789062 21.847656 13.734375 22.46875 14.839844 22.851562 C 16.410156 23.414062 17.734375 23.226562 18.902344 23.058594 C 20.898438 22.773438 22.222656 22.585938 24.039062 26.417969 C 25.082031 28.628906 26.464844 30.640625 27.921875 32.085938 C 29.65625 33.804688 31.496094 34.726562 33.246094 34.773438 C 35.84375 34.824219 38.125 33.039062 40.027344 29.449219 C 41.320312 27.015625 41.640625 25.371094 41.035156 24.304688 C 40.289062 22.972656 38.441406 22.867188 36.300781 22.746094 C 34.671875 22.65625 32.832031 22.550781 31.375 21.867188 C 31.488281 21.660156 31.578125 21.441406 31.636719 21.214844 C 31.699219 20.984375 31.730469 20.753906 31.738281 20.515625 C 31.742188 20.277344 31.71875 20.046875 31.664062 19.8125 C 31.613281 19.582031 31.53125 19.363281 31.425781 19.152344 C 31.320312 18.941406 31.1875 18.746094 31.035156 18.566406 C 30.878906 18.386719 30.707031 18.226562 30.511719 18.089844 C 30.320312 17.953125 30.113281 17.839844 29.894531 17.753906 C 29.671875 17.667969 29.445312 17.609375 29.210938 17.578125 C 28.976562 17.546875 28.742188 17.546875 28.503906 17.570312 C 28.269531 17.597656 28.042969 17.652344 27.820312 17.734375 C 27.597656 17.816406 27.390625 17.925781 27.195312 18.058594 C 26.996094 18.191406 26.820312 18.347656 26.664062 18.523438 C 26.503906 18.699219 26.371094 18.890625 26.261719 19.101562 C 26.148438 19.308594 26.066406 19.53125 26.007812 19.757812 C 25.953125 19.988281 25.921875 20.222656 25.921875 20.460938 C 25.921875 20.695312 25.953125 20.929688 26.007812 21.160156 C 26.066406 21.390625 26.148438 21.609375 26.261719 21.816406 C 26.371094 22.027344 26.503906 22.21875 26.664062 22.398438 C 26.820312 22.574219 26.996094 22.726562 27.191406 22.863281 C 27.386719 22.996094 27.597656 23.101562 27.816406 23.183594 C 28.039062 23.269531 28.269531 23.324219 28.503906 23.347656 C 28.738281 23.375 28.972656 23.375 29.210938 23.34375 C 29.445312 23.3125 29.671875 23.253906 29.890625 23.167969 C 30.113281 23.082031 30.320312 22.96875 30.511719 22.832031 C 32.273438 23.765625 34.371094 23.886719 36.238281 23.988281 C 37.9375 24.085938 39.542969 24.175781 39.953125 24.910156 C 40.207031 25.355469 40.230469 26.398438 38.929688 28.859375 C 37.261719 32.003906 35.355469 33.578125 33.273438 33.527344 C 29.929688 33.453125 26.816406 29.367188 25.167969 25.890625 C 22.957031 21.226562 20.804688 21.53125 18.722656 21.832031 C 17.648438 21.984375 16.542969 22.144531 15.261719 21.683594 C 13.230469 20.953125 12.335938 19.578125 11.941406 18.492188 L 12.027344 18.457031 C 12.242188 18.359375 12.394531 18.203125 12.480469 17.984375 C 12.566406 17.765625 12.5625 17.546875 12.46875 17.332031 L 12.082031 16.453125 C 12.664062 15.984375 13.105469 15.40625 13.410156 14.722656 C 14.152344 12.9375 13.191406 8.386719 12.03125 6.980469 C 11.5 6.351562 10.699219 5.988281 9.6875 5.925781 C 9.554688 5.679688 9.367188 5.484375 9.128906 5.34375 C 8.890625 5.203125 8.632812 5.128906 8.351562 5.128906 C 8.226562 5.128906 8.105469 5.144531 7.984375 5.175781 C 7.863281 5.207031 7.746094 5.253906 7.636719 5.3125 C 7.527344 5.371094 7.425781 5.445312 7.335938 5.53125 C 7.242188 5.613281 7.160156 5.710938 7.09375 5.8125 C 7.023438 5.917969 6.96875 6.03125 6.929688 6.148438 C 6.886719 6.265625 6.863281 6.386719 6.851562 6.511719 C 6.839844 6.636719 6.847656 6.761719 6.867188 6.886719 C 6.886719 7.007812 6.921875 7.128906 6.972656 7.242188 C 7.09375 7.523438 7.285156 7.746094 7.542969 7.910156 C 7.804688 8.074219 8.085938 8.15625 8.390625 8.148438 C 8.699219 8.140625 8.976562 8.046875 9.226562 7.871094 C 9.476562 7.695312 9.660156 7.464844 9.769531 7.175781 C 10.335938 7.234375 10.761719 7.421875 11.039062 7.734375 L 11.066406 7.769531 C 11.480469 8.265625 11.933594 9.539062 12.195312 10.9375 C 12.460938 12.332031 12.488281 13.671875 12.253906 14.230469 C 11.832031 15.253906 10.671875 15.9375 10.308594 16.132812 C 9.917969 16.269531 8.632812 16.652344 7.589844 16.269531 C 7.023438 16.058594 6.070312 15.144531 5.214844 13.980469 C 4.359375 12.816406 3.738281 11.636719 3.65625 10.988281 C 3.597656 10.5625 3.75 10.109375 4.105469 9.632812 C 4.21875 9.679688 4.339844 9.710938 4.460938 9.726562 C 4.585938 9.746094 4.710938 9.746094 4.832031 9.730469 C 4.957031 9.71875 5.078125 9.691406 5.191406 9.644531 C 5.308594 9.601562 5.417969 9.546875 5.523438 9.476562 C 5.625 9.402344 5.71875 9.320312 5.800781 9.226562 C 5.882812 9.136719 5.949219 9.03125 6.007812 8.921875 C 6.066406 8.8125 6.109375 8.695312 6.136719 8.574219 C 6.164062 8.453125 6.179688 8.332031 6.175781 8.207031 C 6.175781 8.082031 6.15625 7.960938 6.125 7.839844 C 6.09375 7.71875 6.046875 7.605469 5.984375 7.496094 C 5.925781 7.386719 5.851562 7.285156 5.765625 7.195312 C 5.683594 7.105469 5.585938 7.027344 5.480469 6.957031 C 5.378906 6.890625 5.265625 6.835938 5.148438 6.796875 C 5.03125 6.757812 4.910156 6.734375 4.785156 6.722656 C 4.660156 6.714844 4.539062 6.71875 4.414062 6.738281 C 4.292969 6.757812 4.171875 6.792969 4.058594 6.84375 C 3.882812 6.921875 3.726562 7.027344 3.589844 7.164062 C 3.457031 7.300781 3.351562 7.453125 3.273438 7.632812 C 3.195312 7.808594 3.15625 7.992188 3.148438 8.183594 C 3.140625 8.375 3.171875 8.5625 3.234375 8.742188 C 2.59375 9.53125 2.308594 10.371094 2.417969 11.175781 Z M 2.417969 11.175781 " fill-opacity="1" fill-rule="nonzero"/></svg>